<svg width="241" height="335" viewBox="0 0 241 335" fill="none" xmlns="http://www.w3.org/2000/svg">
<g opacity="0.5">
<path d="M39.4998 322.246L54.8705 329.806C68.1866 336.356 83.8856 335.867 96.7685 328.503L225.774 254.55C232.994 250.423 232.667 239.904 225.204 236.233L192.458 220.126L39.0573 308.025C33.452 311.229 33.7063 319.396 39.4998 322.246Z" fill="#202020" fill-opacity="0.05"/>
</g>
<path d="M84.6087 61.7811L189.645 1.13757C191.282 0.192796 192.778 0.121228 193.937 0.759032V0.752131L208.207 9.1616L196.294 18.5014V210.561C196.294 215.459 193.317 221.146 189.645 223.266L95.7772 277.461L94.4771 292.637L80.3814 284.328C80.3782 284.326 80.3751 284.324 80.3713 284.321L80.1748 284.205L80.1805 284.2C78.8208 283.361 77.9595 281.507 77.9595 278.882V74.485C77.9595 69.5891 80.9363 63.901 84.6087 61.7811Z" fill="#F5FFDB"/>
<path d="M94.4771 292.983C94.4163 292.983 94.356 292.967 94.302 292.935L79.9991 284.503C79.9753 284.489 79.9539 284.472 79.9345 284.453C78.4586 283.501 77.6143 281.477 77.6143 278.883V74.4853C77.6143 69.4871 80.6746 63.654 84.4361 61.4819L189.473 0.839049C191.124 -0.11389 192.743 -0.259528 194.042 0.42473C194.066 0.432263 194.089 0.442305 194.111 0.455488L208.382 8.86496C208.48 8.92272 208.544 9.02567 208.552 9.13929C208.559 9.25354 208.51 9.3634 208.42 9.43434L196.639 18.6699V210.562C196.639 215.561 193.579 221.395 189.818 223.566L96.1056 277.671L94.8205 292.668C94.8105 292.786 94.7402 292.891 94.6353 292.945C94.5858 292.97 94.5318 292.983 94.4771 292.983ZM80.4134 283.946L94.1802 292.062L95.4339 277.432C95.4433 277.32 95.5073 277.219 95.6052 277.163L189.474 222.968C193.044 220.906 195.95 215.341 195.95 210.562V18.5017C195.95 18.3956 195.998 18.2952 196.082 18.2299L207.596 9.20207L193.818 1.08325C193.802 1.0776 193.786 1.07007 193.771 1.06191C192.68 0.460512 191.277 0.594225 189.819 1.43668L84.782 62.0802C81.2107 64.1417 78.3054 69.7068 78.3054 74.4853V278.883C78.3054 281.27 79.055 283.101 80.362 283.907C80.3802 283.918 80.3971 283.932 80.4134 283.946Z" fill="#202020"/>
<path d="M98.6837 292.205L203.72 231.562C207.393 229.442 210.37 223.754 210.37 218.858V14.4609C210.37 9.56433 207.393 7.31381 203.72 9.43438L98.6837 70.0772C95.0106 72.1972 92.0344 77.8853 92.0344 82.7819V287.179C92.0344 292.075 95.0106 294.326 98.6837 292.205Z" fill="#F5FFDB"/>
<path d="M201.085 226.999C202.942 225.927 205.1 222.138 205.1 218.858V14.7202L101.317 74.6393C99.4602 75.7115 97.302 79.5013 97.302 82.7807V286.919L201.085 226.999Z" fill="#E5FEA1"/>
<path d="M97.3025 287.264C97.2429 287.264 97.1833 287.249 97.1299 287.218C97.0232 287.156 96.9573 287.043 96.9573 286.919V142.392H97.6478V286.321L200.913 226.701C202.69 225.675 204.756 222.026 204.756 218.858V15.3182L101.49 74.9378C99.7131 75.9642 97.6478 79.6134 97.6478 82.7804V109.33H96.9573V82.7811C96.9573 79.3893 99.2078 75.4589 101.145 74.3402L204.928 14.4211C205.034 14.3596 205.167 14.3596 205.273 14.4211C205.38 14.4827 205.445 14.5969 205.445 14.7206V218.859C205.445 222.251 203.194 226.182 201.258 227.298L97.4745 287.218C97.4224 287.249 97.3622 287.264 97.3025 287.264Z" fill="#202020"/>
<path d="M96.0395 293.348C95.364 293.348 94.7293 293.184 94.1593 292.855C92.5893 291.949 91.6885 289.88 91.6885 287.179V82.7812C91.6885 77.783 94.7488 71.9492 98.5103 69.7778L203.547 9.13491C205.257 8.14744 206.925 8.02377 208.243 8.78399C209.813 9.69048 210.714 11.7596 210.714 14.4602V218.858C210.714 223.856 207.654 229.69 203.892 231.861L98.8562 292.504C97.8851 293.065 96.9271 293.348 96.0395 293.348ZM206.363 8.98425C205.595 8.98425 204.754 9.23535 203.892 9.73316L98.8562 70.376C95.2849 72.4382 92.3796 78.0027 92.3796 82.7818V287.179C92.3796 289.626 93.1543 291.477 94.5052 292.258C95.6013 292.89 97.0244 292.766 98.511 291.907L203.548 231.263C207.118 229.201 210.024 223.636 210.024 218.858V14.4608C210.024 12.0138 209.25 10.1625 207.898 9.38287C207.438 9.1167 206.919 8.98425 206.363 8.98425Z" fill="#202020"/>
<path d="M181.839 95.839C182.166 95.6067 182.436 95.3619 182.656 95.1045C182.442 95.3619 182.166 95.6067 181.839 95.839Z" fill="#200E71"/>
<path d="M183.346 93.585C183.321 93.8737 183.24 94.1625 183.095 94.445C183.234 94.1625 183.316 93.8737 183.341 93.585H183.346Z" fill="#200E71"/>
<path d="M183.351 125.162V130.875C183.445 131.942 182.773 133.022 181.373 133.831L88.7096 187.335L86.7698 188.453C83.9637 190.072 80.9693 191.027 77.956 191.359C68.9979 192.383 59.8954 187.969 55.1746 179.564C55.1432 179.507 55.1119 179.451 55.0742 179.394C52.695 175.402 54.0007 170.694 58.3071 167.36C58.4955 167.222 58.6838 167.078 58.8784 166.94C59.0291 166.833 59.186 166.726 59.3492 166.626C59.4246 166.569 59.4999 166.525 59.5752 166.475C59.7573 166.356 59.9519 166.243 60.1465 166.13L77.956 155.847V183.971C81.007 183.512 83.8884 182.59 86.2676 181.215L88.7096 179.802L183.351 125.162Z" fill="#202020"/>
<path d="M219.055 113.869V113.989C219.055 113.946 219.055 113.913 219.044 113.869C219.055 113.869 219.055 113.869 219.055 113.869Z" fill="#4F0011"/>
<path d="M181.839 95.839C182.166 95.6067 182.436 95.3619 182.656 95.1045C182.442 95.3619 182.166 95.6067 181.839 95.839Z" fill="#342A8A"/>
<path d="M183.346 93.585C183.321 93.8737 183.24 94.1625 183.095 94.445C183.234 94.1625 183.316 93.8737 183.341 93.585H183.346Z" fill="#342A8A"/>
<path d="M196.296 117.692V210.563C196.296 215.46 193.32 221.147 189.648 223.269L95.7789 277.464L94.4794 292.637L80.38 284.325H80.3737L80.1728 284.206L80.1791 284.199C78.8231 283.364 77.9568 281.506 77.9568 278.882V183.971C81.0077 183.513 83.8891 182.59 86.2683 181.215L88.7103 179.803L183.351 125.163L196.296 117.692Z" fill="#F5FFDB"/>
<path d="M181.839 95.839C182.166 95.6067 182.436 95.3619 182.656 95.1045C182.442 95.3619 182.166 95.6067 181.839 95.839Z" fill="#F5FFDB"/>
<path d="M183.346 93.585C183.321 93.8737 183.24 94.1625 183.095 94.445C183.234 94.1625 183.316 93.8737 183.341 93.585H183.346Z" fill="#F5FFDB"/>
<path d="M207.05 111.483V214.002C207.05 218.899 204.074 224.586 200.402 226.708L106.533 280.903L105.234 296.076L91.1341 287.764H91.1278L90.9269 287.645L90.9332 287.639C89.5773 286.804 88.7109 284.945 88.7109 282.321V179.802L183.352 125.162L207.05 111.483Z" fill="#F5FFDB"/>
<path d="M217.078 111.218C216.217 110.72 215.181 110.388 214.085 110.214C212.727 109.999 211.279 110.033 209.95 110.316C209.056 110.506 208.216 110.803 207.499 111.218L90.0224 179.045L88.7097 179.802L88.6752 179.822L86.2702 181.211C85.8484 181.455 85.4083 181.681 84.9582 181.895C84.8973 181.924 84.8364 181.953 84.7749 181.982C83.8659 182.404 82.9042 182.768 81.9029 183.077C81.8351 183.097 81.7673 183.118 81.6989 183.139C80.7328 183.427 79.7315 183.66 78.7076 183.843C78.5463 183.872 78.3849 183.9 78.2223 183.926C77.7722 183.999 77.3196 184.065 76.8633 184.118C76.7327 184.133 76.6008 184.144 76.4696 184.157C76.0616 184.199 75.6511 184.233 75.2392 184.259C75.0773 184.27 74.9153 184.279 74.7533 184.287C74.2486 184.312 73.7427 184.328 73.2361 184.328C73.1877 184.328 73.14 184.326 73.0917 184.326C72.6045 184.324 72.118 184.31 71.6321 184.286C71.5097 184.279 71.3867 184.273 71.2649 184.266C70.1908 184.201 69.1249 184.083 68.0803 183.91C67.9955 183.896 67.9114 183.881 67.8273 183.867C66.7582 183.681 65.713 183.437 64.7054 183.136C64.6477 183.119 64.5899 183.101 64.5322 183.084C63.519 182.773 62.5466 182.404 61.6288 181.977C61.5767 181.952 61.5246 181.928 61.4731 181.903C61.0167 181.686 60.5723 181.457 60.146 181.211L60.1429 181.213C53.6173 177.44 53.0096 171.534 58.3067 167.36C58.495 167.222 58.6833 167.078 58.8779 166.94C59.0286 166.833 59.1855 166.726 59.3487 166.626C59.4241 166.569 59.4994 166.525 59.5748 166.475C59.7568 166.356 59.9514 166.243 60.146 166.13L77.9556 155.847V144.786L50.5664 160.599C38.0802 167.806 38.8775 178.308 50.5664 186.739L50.5677 186.74L50.567 186.741C51.0768 187.109 51.5909 187.457 52.1076 187.791C52.2657 187.894 52.4258 187.989 52.5853 188.089C52.9406 188.312 53.2971 188.531 53.6556 188.738C53.8571 188.856 54.0599 188.966 54.262 189.079C54.5822 189.256 54.9023 189.429 55.2244 189.595C55.4422 189.707 55.6607 189.816 55.8791 189.923C56.1911 190.076 56.5031 190.222 56.817 190.364C57.0392 190.464 57.2614 190.566 57.4849 190.661C57.8057 190.799 58.1278 190.927 58.4498 191.054C58.6632 191.138 58.8767 191.226 59.0914 191.305C59.4749 191.448 59.8604 191.578 60.2458 191.706C60.4605 191.777 60.6752 191.85 60.8899 191.916C61.3444 192.057 61.7995 192.191 62.2559 192.312C62.4882 192.374 62.7211 192.427 62.954 192.483C63.2597 192.558 63.566 192.633 63.873 192.7C64.126 192.754 64.3796 192.803 64.6326 192.852C64.9208 192.908 65.2089 192.963 65.497 193.011C65.7563 193.055 66.0156 193.095 66.2748 193.133C66.5605 193.175 66.8455 193.213 67.1311 193.248C67.3885 193.28 67.6459 193.312 67.9039 193.338C68.1989 193.368 68.4933 193.391 68.7884 193.415C69.0345 193.434 69.2805 193.456 69.526 193.471C69.8681 193.491 70.2096 193.502 70.5511 193.513C70.7583 193.519 70.9648 193.531 71.172 193.534C71.6824 193.543 72.1915 193.541 72.7006 193.53C72.9134 193.525 73.1262 193.513 73.339 193.505C73.6673 193.493 73.9956 193.48 74.3233 193.46C74.5493 193.447 74.7747 193.428 75.0001 193.41C75.3171 193.385 75.6341 193.359 75.9499 193.327C76.1702 193.305 76.3899 193.281 76.609 193.256C76.9373 193.218 77.2656 193.176 77.5927 193.13C77.7132 193.113 77.8344 193.102 77.9549 193.084C78.0529 193.07 78.1502 193.051 78.2481 193.036C78.4622 193.003 78.6756 192.968 78.8884 192.932C79.1646 192.885 79.4408 192.837 79.7158 192.786C79.8978 192.752 80.0793 192.716 80.2607 192.68C80.5626 192.62 80.864 192.557 81.164 192.491C81.3229 192.456 81.4811 192.42 81.6393 192.384C81.9582 192.31 82.2764 192.233 82.5934 192.153C82.7347 192.118 82.8759 192.081 83.0166 192.044C83.3443 191.958 83.6707 191.868 83.9965 191.776C84.1277 191.739 84.2589 191.701 84.3901 191.663C84.7209 191.566 85.0492 191.465 85.3769 191.362C85.5025 191.322 85.628 191.283 85.753 191.242C86.0813 191.135 86.4071 191.025 86.7316 190.912C86.8547 190.87 86.9783 190.828 87.1008 190.784C87.4234 190.669 87.743 190.55 88.0619 190.43C88.1849 190.383 88.3079 190.338 88.4297 190.29C88.5226 190.255 88.6168 190.221 88.7091 190.185C88.8359 190.135 88.9583 190.079 89.0845 190.029C89.453 189.88 89.819 189.728 90.1824 189.572C90.3833 189.486 90.5855 189.401 90.7838 189.313C91.2816 189.092 91.7751 188.865 92.2616 188.632C92.4235 188.554 92.5817 188.474 92.7418 188.394C93.1273 188.204 93.5096 188.011 93.8868 187.813C94.0388 187.734 94.1901 187.655 94.3401 187.575C94.8498 187.302 95.3545 187.025 95.848 186.74L185.731 134.845L196.295 128.746L207.049 122.537L217.074 116.749C217.24 116.653 217.396 116.554 217.541 116.451C219.713 114.916 219.557 112.65 217.078 111.218Z" fill="#E5FEA1"/>
<path d="M71.8198 193.855C71.6026 193.855 71.3854 193.853 71.1682 193.849C71.0345 193.847 70.9008 193.842 70.7671 193.836L70.543 193.827C70.1983 193.816 69.8543 193.805 69.5097 193.785C69.3264 193.774 69.1431 193.759 68.9592 193.744L68.7658 193.729C68.4682 193.705 68.1713 193.682 67.8744 193.651C67.6145 193.625 67.3546 193.593 67.0947 193.56C66.8072 193.525 66.5191 193.487 66.2315 193.444C65.9698 193.405 65.7086 193.365 65.4468 193.321C65.1562 193.271 64.8655 193.216 64.5742 193.16L64.4751 193.14C64.2528 193.097 64.0306 193.054 63.8077 193.006C63.4983 192.939 63.1894 192.863 62.8799 192.788L62.6596 192.734C62.4982 192.695 62.3369 192.657 62.1756 192.614C61.7161 192.492 61.2565 192.357 60.7976 192.215C60.6187 192.16 60.4411 192.1 60.2628 192.041L60.1479 192.003C59.7587 191.874 59.3701 191.742 58.9828 191.599C58.8302 191.542 58.679 191.481 58.5277 191.421L58.3349 191.344C58.0104 191.216 57.6858 191.087 57.3619 190.949C57.1692 190.867 56.9771 190.779 56.785 190.693L56.6883 190.649C56.3719 190.506 56.0568 190.358 55.7423 190.204C55.5213 190.096 55.3016 189.986 55.0813 189.873C54.7567 189.706 54.4334 189.532 54.1107 189.353L53.9915 189.287C53.827 189.196 53.6625 189.105 53.4987 189.01C53.1371 188.8 52.778 188.579 52.4189 188.354L52.2369 188.242C52.1364 188.181 52.0366 188.119 51.9368 188.054C51.3725 187.688 50.8646 187.343 50.3837 186.995L50.1967 186.86L50.1973 186.857C44.1538 182.453 40.9497 177.333 41.1977 172.445C41.43 167.861 44.6152 163.671 50.4088 160.327L78.2688 144.242V156.028L60.3023 166.401C60.1134 166.511 59.9238 166.621 59.7462 166.738L59.6664 166.789C59.6231 166.817 59.5792 166.844 59.5358 166.877C59.355 166.99 59.2038 167.093 59.0581 167.196C58.9382 167.281 58.8202 167.369 58.7034 167.456L58.4919 167.613C56.1246 169.479 54.9074 171.782 55.0725 174.092C55.2545 176.634 57.0662 179.037 60.1787 180.87L60.303 180.939C60.701 181.169 61.1278 181.391 61.6081 181.619L61.7613 181.691C62.6546 182.107 63.6182 182.474 64.6245 182.782L64.7946 182.834C65.777 183.128 66.8153 183.371 67.8813 183.556L68.1318 183.599C69.1531 183.769 70.214 183.887 71.2838 183.952L71.6472 183.971C72.1287 183.995 72.6108 184.01 73.0929 184.011L73.2361 184.013C73.737 184.013 74.238 183.996 74.7383 183.972C74.8984 183.964 75.0585 183.955 75.2192 183.944C75.6272 183.919 76.0334 183.885 76.4377 183.843L76.8275 183.803C77.2789 183.751 77.7271 183.686 78.1722 183.614C78.3335 183.588 78.4929 183.56 78.6524 183.532C79.6882 183.347 80.6826 183.113 81.6085 182.836L81.81 182.775C82.8075 182.468 83.7605 182.105 84.6425 181.695L84.822 181.61C85.3029 181.381 85.7247 181.162 86.1133 180.937L207.343 110.944C208.064 110.526 208.92 110.211 209.886 110.006C211.259 109.714 212.727 109.679 214.135 109.902C215.305 110.087 216.377 110.448 217.235 110.944C218.562 111.711 219.321 112.747 219.372 113.862C219.421 114.909 218.835 115.919 217.723 116.706C217.57 116.814 217.406 116.919 217.231 117.02L96.0056 187.013C95.509 187.299 95.0018 187.578 94.4889 187.852L94.0325 188.093C93.6533 188.291 93.2692 188.486 92.8812 188.677L92.3972 188.916C91.9088 189.15 91.4129 189.379 90.9113 189.601C90.76 189.668 90.6075 189.734 90.4543 189.799L90.3061 189.862C89.9414 190.019 89.5729 190.172 89.2019 190.321L88.173 190.725C87.8528 190.846 87.5314 190.965 87.2062 191.081L86.8352 191.21C86.5082 191.324 86.1805 191.435 85.8503 191.542L85.4724 191.663C85.1428 191.767 84.812 191.869 84.4793 191.966L84.0831 192.08C83.7561 192.173 83.4271 192.264 83.0969 192.35L82.6713 192.46C82.3518 192.54 82.0316 192.618 81.7108 192.692L81.2331 192.8C80.9305 192.867 80.6273 192.93 80.3235 192.99C80.1402 193.027 79.9581 193.063 79.7748 193.097C79.498 193.149 79.2205 193.198 78.9418 193.244C78.7277 193.28 78.5124 193.316 78.2971 193.349L77.6379 193.443C77.3083 193.489 76.9775 193.531 76.6467 193.569C76.4257 193.595 76.2041 193.619 75.9825 193.641C75.6642 193.673 75.3454 193.7 75.0258 193.725L74.894 193.736C74.7107 193.75 74.528 193.764 74.3441 193.775C74.0139 193.795 73.683 193.808 73.3516 193.82L73.1476 193.829C73.0013 193.835 72.855 193.842 72.7088 193.845C72.4125 193.852 72.1161 193.855 71.8198 193.855ZM77.6423 145.33L50.724 160.871C45.1237 164.103 42.0464 168.117 41.8255 172.477C41.5869 177.187 44.7559 182.162 50.7503 186.485C51.2205 186.825 51.7196 187.165 52.2789 187.528C52.3744 187.59 52.4704 187.649 52.5658 187.708L52.7529 187.823C53.1051 188.044 53.4585 188.262 53.8132 188.467C53.9733 188.56 54.1346 188.65 54.2953 188.738L54.4152 188.804C54.7322 188.98 55.0499 189.151 55.3688 189.316C55.5847 189.427 55.8007 189.535 56.0179 189.641C56.3267 189.793 56.6362 189.937 56.947 190.078L57.0436 190.122C57.232 190.207 57.4203 190.292 57.6086 190.373C57.9263 190.509 58.2458 190.636 58.5647 190.761L58.7606 190.839C58.9068 190.898 59.0537 190.957 59.2013 191.011C59.581 191.152 59.9627 191.281 60.345 191.408L60.4605 191.446C60.6351 191.504 60.8089 191.562 60.9835 191.616C61.4336 191.756 61.8849 191.888 62.3369 192.009C62.4932 192.05 62.6489 192.088 62.8052 192.125L63.0293 192.179C63.3325 192.253 63.6364 192.328 63.9402 192.393C64.158 192.441 64.3759 192.483 64.5943 192.525L64.6941 192.545C64.9798 192.6 65.2654 192.654 65.551 192.702C65.8078 192.746 66.0652 192.786 66.3226 192.824C66.605 192.866 66.8875 192.903 67.1713 192.938C67.4268 192.97 67.6817 193.001 67.9378 193.028C68.2303 193.057 68.5222 193.081 68.8148 193.103L69.0106 193.119C69.1895 193.134 69.3678 193.149 69.5467 193.159C69.8864 193.179 70.2247 193.189 70.5637 193.201L70.7935 193.21C70.9222 193.215 71.0508 193.22 71.1795 193.222C71.6849 193.23 72.1909 193.229 72.6962 193.218C72.8381 193.215 72.9793 193.208 73.1206 193.203L73.329 193.194C73.6561 193.182 73.9818 193.169 74.307 193.149C74.4866 193.138 74.6661 193.124 74.8456 193.11L74.9787 193.099C75.2932 193.075 75.6078 193.048 75.9216 193.017C76.1401 192.995 76.3579 192.971 76.5758 192.946C76.9022 192.908 77.228 192.867 77.5526 192.822L78.2035 192.729C78.4157 192.696 78.6279 192.661 78.8395 192.625C79.1144 192.579 79.3881 192.531 79.6612 192.48C79.8426 192.446 80.0222 192.411 80.2023 192.375C80.5024 192.315 80.8018 192.253 81.0994 192.188L81.5709 192.081C81.8885 192.007 82.2043 191.931 82.5188 191.852L82.9387 191.744C83.2652 191.658 83.5897 191.569 83.9124 191.477L84.3035 191.365C84.6318 191.268 84.9582 191.168 85.2841 191.065L85.6576 190.946C85.984 190.84 86.3079 190.73 86.6306 190.618L86.9966 190.49C87.3174 190.376 87.6356 190.258 87.952 190.138L88.969 189.739C89.3356 189.592 89.6991 189.44 90.06 189.286L90.2094 189.222C90.3595 189.158 90.5101 189.094 90.6583 189.028C91.1536 188.808 91.6439 188.583 92.1273 188.351L92.6044 188.115C92.9879 187.926 93.3671 187.734 93.7425 187.537L94.1932 187.3C94.6998 187.029 95.2014 186.754 95.6923 186.471L216.917 116.478C217.075 116.387 217.222 116.293 217.36 116.195C218.291 115.536 218.783 114.718 218.745 113.893C218.704 112.999 218.056 112.145 216.921 111.489C216.129 111.031 215.131 110.697 214.036 110.524C212.721 110.314 211.293 110.35 210.016 110.622C209.115 110.813 208.322 111.104 207.656 111.488L86.4272 181.483C86.0242 181.715 85.5879 181.943 85.0932 182.179L84.908 182.266C84.0003 182.688 83.021 183.061 81.9958 183.377L81.7887 183.44C80.8408 183.722 79.8232 183.962 78.7641 184.152C78.6009 184.18 78.4371 184.209 78.2726 184.235C77.8194 184.309 77.3617 184.375 76.9003 184.428L76.5029 184.469C76.0905 184.511 75.6762 184.546 75.2606 184.572C75.0974 184.583 74.9335 184.592 74.7703 184.6C74.26 184.625 73.7496 184.642 73.2386 184.643L73.0942 184.64C72.6014 184.638 72.1099 184.624 71.619 184.6L71.248 184.58C70.1563 184.514 69.074 184.393 68.0307 184.219L67.7752 184.176C66.6854 183.986 65.6232 183.737 64.6182 183.437L64.4424 183.384C63.4091 183.067 62.4185 182.69 61.4995 182.262L61.3413 182.187C60.9069 181.981 60.5139 181.778 60.1454 181.571L60.1441 181.572L59.9878 181.486C56.6161 179.536 54.6487 176.927 54.4491 174.138C54.2683 171.614 55.5703 169.119 58.1146 167.114L58.3312 166.953C58.4517 166.863 58.5741 166.773 58.6984 166.684C58.8554 166.574 59.0173 166.463 59.1862 166.359C59.2188 166.333 59.2753 166.297 59.3312 166.26L59.4028 166.215C59.5917 166.091 59.7907 165.975 59.9903 165.859L77.6436 155.667V145.33H77.6423Z" fill="#202020"/>
<path d="M52.4491 186.484C64.9158 193.699 82.5904 193.628 95.0458 186.413L217.084 116.747C218.395 115.986 219.056 114.982 219.056 113.989V228.553C219.056 238.254 213.859 247.21 205.437 252.024L96.0571 314.539C83.591 321.742 63.3062 323.838 50.8402 316.635C44.8269 313.15 41.9404 306.493 41.5236 301.942L41.501 172.755C41.501 177.497 46.2274 182.877 52.4491 186.484Z" fill="#F5FFDB"/>
<path d="M69.9001 321.463C62.9841 321.463 56.1961 320.092 50.6831 316.906C44.7709 313.479 41.6654 306.935 41.2109 301.97L41.187 172.754H41.8148C41.8148 177.129 46.0509 182.412 52.6066 186.213C65.0231 193.398 82.4108 193.37 94.8887 186.142L216.928 116.475C218.08 115.807 218.742 114.9 218.742 113.989H219.37V228.553C219.37 238.341 214.091 247.438 205.593 252.296L96.2127 314.812C89.21 318.857 79.4346 321.463 69.9001 321.463ZM41.8148 175.934L41.8367 301.941C42.2749 306.717 45.2781 313.049 50.9964 316.363C63.7431 323.728 84.2294 321.01 95.8988 314.267L205.28 251.751C213.584 247.005 218.741 238.116 218.741 228.553V115.746C218.384 116.218 217.879 116.648 217.24 117.019L95.2014 186.686C82.5407 194.019 64.895 194.049 52.2915 186.755C47.0497 183.716 43.2492 179.721 41.8148 175.934Z" fill="#202020"/>
<path d="M188.853 177.815L218.159 160.716C220.678 159.247 223.779 159.183 226.358 160.548L228.076 161.458L184.974 208.291L180.495 205.923C178.363 204.685 177.038 202.044 177.038 198.272C177.038 190.738 182.321 181.575 188.853 177.815Z" fill="#202020"/>
<path d="M194.158 179.367L225.123 161.489C227.028 160.391 229.408 161.763 229.408 163.963V179.264C229.408 183.616 227.087 187.635 223.319 189.812L193.025 207.302C189.759 209.185 186.81 209.36 184.67 208.131C181.696 206.405 180.297 201.965 181.852 195.541C183.51 188.692 188.055 182.89 194.158 179.367Z" fill="#F5FFDB"/>
<path d="M187.746 209.232C186.569 209.232 185.478 208.957 184.514 208.404C181.166 206.462 180.057 201.626 181.547 195.468C183.188 188.684 187.729 182.716 194.001 179.094L224.966 161.217C225.958 160.644 227.144 160.643 228.138 161.217C229.13 161.79 229.722 162.816 229.722 163.962V179.264C229.722 183.711 227.329 187.857 223.475 190.083L193.182 207.573C191.272 208.677 189.421 209.232 187.746 209.232ZM226.553 161.416C226.116 161.416 225.679 161.531 225.281 161.761L194.315 179.638C188.19 183.173 183.759 188.997 182.158 195.616C180.737 201.488 181.735 206.065 184.829 207.86C186.96 209.084 189.816 208.791 192.869 207.03L223.163 189.54C226.823 187.426 229.096 183.489 229.096 179.264V163.963C229.096 163.044 228.62 162.221 227.826 161.761C227.426 161.531 226.989 161.416 226.553 161.416Z" fill="#202020"/>
<path d="M192.456 186.467C196.03 184.406 198.926 186.077 198.926 190.204C198.926 194.329 196.03 199.345 192.458 201.406C188.886 203.47 185.989 201.797 185.989 197.671C185.99 193.547 188.886 188.531 192.456 186.467Z" fill="#202020"/>
<path d="M193.935 188.625C196.887 186.923 199.279 188.302 199.279 191.712C199.279 195.118 196.887 199.26 193.937 200.963C190.986 202.666 188.594 201.286 188.594 197.878C188.594 194.471 190.986 190.329 193.935 188.625Z" fill="#E5FEA1"/>
<path d="M191.549 202.008C190.987 202.008 190.464 201.876 190.002 201.608C188.891 200.967 188.281 199.642 188.281 197.877C188.281 194.376 190.747 190.104 193.778 188.353C195.306 187.471 196.76 187.338 197.871 187.979C198.982 188.62 199.593 189.946 199.593 191.711C199.593 195.212 197.126 199.484 194.094 201.233C193.202 201.748 192.336 202.008 191.549 202.008ZM194.092 188.897C191.234 190.548 188.908 194.576 188.908 197.877C188.908 199.408 189.408 200.54 190.316 201.064C191.223 201.587 192.454 201.456 193.78 200.69C196.639 199.04 198.965 195.012 198.965 191.711C198.965 190.179 198.465 189.047 197.558 188.522C196.65 188 195.419 188.131 194.092 188.897Z" fill="#202020"/>
<path d="M1 89.9462C1 85.528 4.10186 80.1554 7.9282 77.9462L44.3013 56.9462C46.4685 55.695 48.4033 55.727 49.6737 56.7927C50.6463 57.6086 51.2295 59.0304 51.2295 60.9462V102.946C51.2295 107.365 48.1276 112.737 44.3013 114.946L7.92821 135.946C5.761 137.197 3.82621 137.166 2.55579 136.1C1.5832 135.284 1 133.862 1 131.946L1 89.9462Z" fill="#D9D9D9" stroke="#202020"/>
<path d="M51.9617 121.374C55.7881 119.165 58.8899 113.792 58.8899 109.374L51.2295 102.946C51.2295 107.365 48.1276 112.737 44.3013 114.946L51.9617 121.374Z" fill="#D9D9D9" stroke="#202020" stroke-linejoin="round"/>
<path d="M15.5887 142.374L51.9617 121.374L44.3013 114.946L7.92822 135.946L15.5887 142.374Z" fill="#D9D9D9" stroke="#202020" stroke-linejoin="round"/>
<path d="M58.8899 109.374V67.3742L51.2295 60.9463V102.946L58.8899 109.374Z" fill="#D9D9D9" stroke="#202020" stroke-linejoin="round"/>
<path d="M10.2161 142.528C11.4865 143.593 13.4213 143.625 15.5885 142.374L7.92808 135.946C5.76087 137.198 3.82608 137.166 2.55566 136.1L10.2161 142.528Z" fill="#D9D9D9" stroke="#202020" stroke-linejoin="round"/>
<path d="M8.66044 138.374C8.66044 140.29 9.24341 141.711 10.2156 142.527L2.55579 136.1C1.5832 135.284 1 133.862 1 131.946L8.66044 138.374Z" fill="#E5FEA1"/>
<path d="M58.8898 67.3739C58.8898 65.4581 58.3066 64.0363 57.334 63.2204L49.6742 56.793C50.6464 57.609 51.2294 59.0306 51.2294 60.946L58.8898 67.3739Z" fill="#D9D9D9" stroke="#202020" stroke-linejoin="round"/>
<path d="M57.3341 63.2206C56.0637 62.1548 54.1289 62.1229 51.9617 63.3741L44.3013 56.9462C46.4685 55.695 48.4033 55.727 49.6737 56.7927L57.3341 63.2206Z" fill="#E5FEA1"/>
<path d="M8.66044 96.3742L8.66045 138.374L1 131.946V89.9463L8.66044 96.3742Z" fill="#E5FEA1"/>
<path d="M51.9617 63.3742L15.5887 84.3742L7.92822 77.9463L44.3013 56.9463L51.9617 63.3742Z" fill="#E5FEA1"/>
<path d="M8.66044 96.3742C8.66044 91.9559 11.7623 86.5833 15.5886 84.3742L7.9282 77.9463C4.10186 80.1554 1 85.528 1 89.9463L8.66044 96.3742Z" fill="#E5FEA1"/>
<mask id="path-39-inside-1_8618_9613" fill="white">
<path d="M8.6604 96.374C8.6604 91.9557 11.7623 86.5832 15.5886 84.374L51.9617 63.374C55.788 61.1649 58.8899 62.9557 58.8899 67.374L58.8899 109.374C58.8899 113.792 55.788 119.165 51.9617 121.374L15.5886 142.374C11.7623 144.583 8.6604 142.792 8.6604 138.374L8.6604 96.374Z"/>
</mask>
<path d="M8.6604 96.374C8.6604 91.9557 11.7623 86.5832 15.5886 84.374L51.9617 63.374C55.788 61.1649 58.8899 62.9557 58.8899 67.374L58.8899 109.374C58.8899 113.792 55.788 119.165 51.9617 121.374L15.5886 142.374C11.7623 144.583 8.6604 142.792 8.6604 138.374L8.6604 96.374Z" fill="#F5FFDB"/>
<path d="M8.14079 96.674C8.14079 91.9244 11.4753 86.1488 15.5886 83.774L51.4421 63.074C55.5554 60.6992 58.8899 62.6244 58.8899 67.374C58.8899 63.2871 55.788 61.7649 51.9617 63.974L15.5886 84.974C12.0492 87.0175 9.18002 91.9871 9.18002 96.074L8.14079 96.674ZM58.8899 117.374L8.6604 146.374L58.8899 117.374ZM15.5886 142.374C11.4753 144.749 8.14079 142.824 8.14079 138.074L8.14079 96.674C8.14079 91.9244 11.4753 86.1488 15.5886 83.774L15.5886 84.974C12.0492 87.0175 9.18002 91.9871 9.18002 96.074L9.18002 138.074C9.18002 142.492 12.0492 144.417 15.5886 142.374ZM58.8899 59.374L58.8899 117.374L58.8899 59.374Z" fill="#202020" mask="url(#path-39-inside-1_8618_9613)"/>
<g clip-path="url(#clip0_8618_9613)">
<path d="M30.6684 111.011C31.7327 111.423 33.1597 110.932 34.4711 110.172C35.8616 109.381 37.2625 107.989 38.3167 106.334C38.4869 106.071 38.9717 105.769 38.1009 105.276C37.16 104.748 37.2588 105.179 37.1288 105.357C36.3634 106.406 35.4992 107.374 34.557 107.918C33.6356 108.47 32.6804 108.48 32.3347 107.677C32.2476 107.5 32.1787 107.244 30.9779 109.27C29.9967 110.935 30.4386 110.938 30.6686 111.016L30.6684 111.011Z" fill="#202020"/>
<path d="M31.1805 100.924C30.8946 99.1728 28.4228 100.672 28.3098 102.705C28.0732 105.518 31.8393 102.999 31.1805 100.924Z" fill="#202020"/>
<path d="M37.4118 97.4496C37.1752 100.263 40.9413 97.7438 40.2825 95.6691C39.9966 93.9179 37.5248 95.417 37.4118 97.4496Z" fill="#202020"/>
<path d="M19.7598 119.57C19.7961 120.628 19.9066 121.671 20.1951 122.675C20.342 123.174 20.5512 123.669 20.8605 124.081C21.0307 124.291 21.1828 124.442 21.353 124.588C21.5233 124.731 21.7052 124.86 21.895 124.97C22.0951 125.085 22.3069 125.182 22.5305 125.256C22.754 125.331 22.9762 125.382 23.2595 125.406C23.8015 125.448 24.3577 125.337 24.8827 125.176C25.9406 124.846 26.9256 124.346 27.8964 123.832C28.2161 123.663 28.6788 123.787 28.7243 122.347C28.7737 120.794 28.2954 121.482 28.0095 121.615C27.118 122.029 26.2265 122.467 25.4117 122.735C25.0062 122.866 24.6202 122.958 24.2901 122.949C23.9769 122.95 23.6312 122.842 23.3492 122.689C23.0659 122.535 22.8073 122.308 22.6202 122.027C22.4434 121.767 22.3369 121.4 22.2745 120.978C22.1549 120.121 22.2173 119.063 22.4005 117.936C22.4837 117.412 22.5968 116.655 20.9333 117.669C19.5687 118.504 19.739 119.1 19.752 119.57L19.7598 119.57Z" fill="#202020"/>
<path d="M22.1121 99.8749C22.2017 99.3549 22.3148 98.844 22.4876 98.363C22.6436 97.9113 22.91 97.3583 23.1829 96.8752C23.4584 96.389 23.7846 95.902 24.1212 95.4916C24.4344 95.1067 24.8061 94.769 25.2024 94.4681C26.0043 93.8671 26.8893 93.4282 27.7743 93.1288C28.1863 92.987 28.7854 92.7717 28.7386 90.8779C28.6983 89.3255 28.0966 89.8695 27.6833 90.1231C26.7489 90.7046 25.7898 91.3858 24.7762 92.3042C24.2706 92.7657 23.7417 93.3127 23.2257 93.9677C22.9593 94.3181 22.7527 94.613 22.5409 94.9319C22.3316 95.2492 22.1289 95.5764 21.9392 95.905C21.739 96.2516 21.5493 96.6058 21.3738 96.9652C21.1971 97.3254 21.0411 97.672 20.8787 98.0929C20.572 98.8958 20.39 99.6431 20.2666 100.321C20.0236 101.682 19.9638 102.854 19.9235 103.999C19.9105 104.375 19.5713 105.105 20.7956 104.451C22.1159 103.746 21.7598 103.399 21.7871 103.053C21.8742 101.969 21.9405 100.906 22.1159 99.8637L22.1121 99.8749Z" fill="#202020"/>
<path d="M49.2161 86.8419C49.1797 85.784 49.0693 84.7403 48.7808 83.7364C48.6339 83.2374 48.4247 82.7429 48.1154 82.3303C47.9451 82.1209 47.7931 81.9701 47.6228 81.8238C47.4526 81.6805 47.2706 81.5514 47.0809 81.4419C46.8808 81.3233 46.6689 81.2295 46.4454 81.156C46.2219 81.081 45.9996 81.0292 45.7163 81.0052C45.1744 80.964 44.6182 81.075 44.0932 81.2356C43.0353 81.5657 42.0502 82.0654 41.0794 82.5794C40.7597 82.749 40.2971 82.6244 40.2516 84.0643C40.2022 85.6174 40.6805 84.9301 40.9663 84.7966C41.8579 84.3824 42.7494 83.9442 43.5642 83.6764C43.9697 83.5458 44.3556 83.4535 44.6857 83.4625C44.9989 83.4618 45.3446 83.5698 45.6266 83.7221C45.9099 83.8767 46.1686 84.1041 46.3557 84.3847C46.5324 84.6443 46.639 85.0119 46.7014 85.4336C46.821 86.2905 46.7586 87.3484 46.5753 88.4761C46.4922 88.9998 46.3791 89.7569 48.0426 88.7425C49.4071 87.9081 49.2369 87.3116 49.2239 86.8419L49.2161 86.8419Z" fill="#202020"/>
<path d="M46.8636 106.537C46.7739 107.057 46.6609 107.568 46.488 108.049C46.3321 108.5 46.0657 109.053 45.7928 109.537C45.5173 110.023 45.1911 110.51 44.8545 110.92C44.5413 111.305 44.1696 111.643 43.7732 111.944C42.9714 112.545 42.0864 112.983 41.2014 113.283C40.7894 113.425 40.1903 113.64 40.2371 115.534C40.2774 117.086 40.8791 116.542 41.2924 116.289C42.2267 115.707 43.1858 115.026 44.1995 114.107C44.705 113.646 45.234 113.099 45.7499 112.444C46.0163 112.094 46.223 111.799 46.4348 111.48C46.644 111.162 46.8468 110.835 47.0365 110.507C47.2366 110.16 47.4264 109.806 47.6018 109.446C47.7786 109.086 47.9345 108.74 48.097 108.319C48.4037 107.516 48.5856 106.769 48.7091 106.091C48.9521 104.729 49.0119 103.557 49.0521 102.413C49.0651 102.036 49.4043 101.306 48.1801 101.961C46.8597 102.666 47.2158 103.013 47.1885 103.358C47.1014 104.443 47.0352 105.506 46.8597 106.548L46.8636 106.537Z" fill="#202020"/>
</g>
<path d="M17 246.283C17 243.383 19.0361 239.856 21.5478 238.406L45.4237 224.621C46.8463 223.8 48.1164 223.821 48.9503 224.52C49.5887 225.056 49.9715 225.989 49.9715 227.247V254.816C49.9715 257.717 47.9354 261.243 45.4237 262.693L21.5478 276.478C20.1252 277.299 18.8552 277.278 18.0212 276.579C17.3828 276.043 17 275.11 17 273.852L17 246.283Z" fill="#D9D9D9" stroke="#202020" stroke-width="0.656418"/>
<path d="M50.4523 266.913C52.964 265.463 55.0001 261.936 55.0001 259.036L49.9716 254.816C49.9716 257.717 47.9355 261.243 45.4238 262.693L50.4523 266.913Z" fill="#D9D9D9" stroke="#202020" stroke-width="0.656418" stroke-linejoin="round"/>
<path d="M26.5763 280.698L50.4522 266.913L45.4238 262.693L21.5479 276.478L26.5763 280.698Z" fill="#D9D9D9" stroke="#202020" stroke-width="0.656418" stroke-linejoin="round"/>
<path d="M54.9999 259.036V231.466L49.9714 227.247V254.817L54.9999 259.036Z" fill="#D9D9D9" stroke="#202020" stroke-width="0.656418" stroke-linejoin="round"/>
<path d="M23.0497 280.798C23.8836 281.498 25.1537 281.519 26.5762 280.697L21.5478 276.478C20.1252 277.299 18.8552 277.278 18.0212 276.579L23.0497 280.798Z" fill="#D9D9D9" stroke="#202020" stroke-width="0.656418" stroke-linejoin="round"/>
<path d="M22.0285 278.072C22.0285 279.329 22.4111 280.262 23.0493 280.798L18.0212 276.579C17.3828 276.043 17 275.11 17 273.853L22.0285 278.072Z" fill="#E5FEA1"/>
<path d="M54.9999 231.466C54.9999 230.208 54.6171 229.275 53.9786 228.739L48.9506 224.52C49.5888 225.056 49.9714 225.989 49.9714 227.246L54.9999 231.466Z" fill="#D9D9D9" stroke="#202020" stroke-width="0.656418" stroke-linejoin="round"/>
<path d="M53.9788 228.74C53.1449 228.04 51.8749 228.019 50.4523 228.84L45.4238 224.621C46.8464 223.8 48.1165 223.821 48.9504 224.52L53.9788 228.74Z" fill="#E5FEA1"/>
<path d="M22.0285 250.503L22.0285 278.072L17 273.853V246.283L22.0285 250.503Z" fill="#E5FEA1"/>
<path d="M50.4522 228.84L26.5763 242.625L21.5479 238.406L45.4238 224.621L50.4522 228.84Z" fill="#E5FEA1"/>
<path d="M22.0285 250.502C22.0285 247.602 24.0646 244.075 26.5763 242.625L21.5478 238.406C19.0361 239.856 17 243.383 17 246.283L22.0285 250.502Z" fill="#E5FEA1"/>
<mask id="path-59-inside-2_8618_9613" fill="white">
<path d="M22.0283 250.502C22.0283 247.602 24.0644 244.075 26.5761 242.625L50.4521 228.841C52.9637 227.39 54.9999 228.566 54.9999 231.466L54.9999 259.036C54.9999 261.936 52.9637 265.463 50.4521 266.913L26.5761 280.698C24.0644 282.148 22.0283 280.972 22.0283 278.072L22.0283 250.502Z"/>
</mask>
<path d="M22.0283 250.502C22.0283 247.602 24.0644 244.075 26.5761 242.625L50.4521 228.841C52.9637 227.39 54.9999 228.566 54.9999 231.466L54.9999 259.036C54.9999 261.936 52.9637 265.463 50.4521 266.913L26.5761 280.698C24.0644 282.148 22.0283 280.972 22.0283 278.072L22.0283 250.502Z" fill="#F5FFDB"/>
<path d="M21.6872 250.699C21.6872 247.581 23.8761 243.79 26.5761 242.231L50.111 228.644C52.811 227.085 54.9999 228.348 54.9999 231.466C54.9999 228.783 52.9637 227.784 50.4521 229.234L26.5761 243.019C24.2528 244.361 22.3694 247.623 22.3694 250.305L21.6872 250.699ZM54.9999 264.287L22.0283 283.323L54.9999 264.287ZM26.5761 280.698C23.8761 282.256 21.6872 280.993 21.6872 277.875L21.6872 250.699C21.6872 247.581 23.8761 243.79 26.5761 242.231L26.5761 243.019C24.2528 244.361 22.3694 247.623 22.3694 250.305L22.3694 277.875C22.3694 280.775 24.2528 282.039 26.5761 280.698ZM54.9999 226.215L54.9999 264.287L54.9999 226.215Z" fill="#202020" mask="url(#path-59-inside-2_8618_9613)"/>
<mask id="mask0_8618_9613" style="mask-type:alpha" maskUnits="userSpaceOnUse" x="28" y="237" width="21" height="36">
<rect width="24" height="24" transform="matrix(0.866025 -0.5 2.20305e-08 1 28 249)" fill="#D9D9D9"/>
</mask>
<g mask="url(#mask0_8618_9613)">
<path d="M38.3937 254.864C38.8246 254.616 39.1929 254.226 39.4988 253.695C39.8048 253.164 39.9578 252.65 39.9578 252.152C39.9578 251.655 39.8044 251.318 39.4975 251.142C39.1906 250.966 38.8217 251.002 38.3907 251.251C37.9599 251.5 37.5915 251.889 37.2857 252.42C36.9797 252.951 36.8267 253.466 36.8267 253.963C36.8267 254.461 36.9801 254.798 37.287 254.974C37.5938 255.15 37.9628 255.113 38.3937 254.864ZM38.3922 262.513C40.0865 259.784 41.383 257.356 42.2818 255.228C43.1806 253.101 43.6299 251.433 43.6299 250.224C43.6299 248.401 43.1284 247.192 42.1252 246.597C41.1221 246.002 39.8778 246.133 38.3922 246.99C36.9067 247.848 35.6624 249.154 34.6592 250.907C33.6561 252.661 33.1545 254.449 33.1545 256.272C33.1545 257.481 33.6039 258.63 34.5027 259.72C35.4015 260.809 36.698 261.74 38.3922 262.513ZM38.3922 264.509C36.2127 263.587 34.5784 262.501 33.4892 261.252C32.4001 260.002 31.8555 258.592 31.8555 257.022C31.8555 254.714 32.5019 252.473 33.7947 250.298C35.0877 248.122 36.6202 246.523 38.3922 245.5C40.1643 244.477 41.6968 244.306 42.9897 244.989C44.2826 245.671 44.929 247.166 44.929 249.474C44.929 251.044 44.3844 253.083 43.2952 255.59C42.2061 258.097 40.5717 261.07 38.3922 264.509Z" fill="#1C1B1F"/>
</g>
<path d="M201.78 247.476C201.78 244.551 203.834 240.994 206.367 239.531L230.451 225.627C231.886 224.798 233.167 224.819 234.008 225.525C234.652 226.065 235.038 227.007 235.038 228.275V256.084C235.038 259.009 232.984 262.567 230.451 264.029L206.367 277.934C204.932 278.762 203.651 278.741 202.81 278.036C202.166 277.495 201.78 276.554 201.78 275.285L201.78 247.476Z" fill="#D9D9D9" stroke="#202020" stroke-width="0.662119"/>
<path d="M235.523 268.285C238.056 266.823 240.11 263.265 240.11 260.34L235.038 256.084C235.038 259.009 232.984 262.567 230.451 264.029L235.523 268.285Z" fill="#D9D9D9" stroke="#202020" stroke-width="0.662119" stroke-linejoin="round"/>
<path d="M211.44 282.19L235.523 268.285L230.451 264.029L206.367 277.934L211.44 282.19Z" fill="#D9D9D9" stroke="#202020" stroke-width="0.662119" stroke-linejoin="round"/>
<path d="M240.11 260.34V232.531L235.038 228.275V256.084L240.11 260.34Z" fill="#D9D9D9" stroke="#202020" stroke-width="0.662119" stroke-linejoin="round"/>
<path d="M207.882 282.292C208.723 282.997 210.004 283.019 211.439 282.19L206.367 277.934C204.932 278.763 203.651 278.741 202.81 278.036L207.882 282.292Z" fill="#D9D9D9" stroke="#202020" stroke-width="0.662119" stroke-linejoin="round"/>
<path d="M206.852 279.542C206.852 280.81 207.238 281.751 207.882 282.291L202.81 278.036C202.166 277.496 201.78 276.554 201.78 275.286L206.852 279.542Z" fill="#E5FEA1"/>
<path d="M240.11 232.531C240.11 231.263 239.724 230.321 239.08 229.781L234.008 225.525C234.652 226.066 235.038 227.007 235.038 228.275L240.11 232.531Z" fill="#D9D9D9" stroke="#202020" stroke-width="0.662119" stroke-linejoin="round"/>
<path d="M239.08 229.781C238.239 229.075 236.958 229.054 235.523 229.883L230.451 225.627C231.886 224.798 233.167 224.819 234.008 225.525L239.08 229.781Z" fill="#E5FEA1"/>
<path d="M206.852 251.733L206.852 279.542L201.78 275.286V247.477L206.852 251.733Z" fill="#E5FEA1"/>
<path d="M235.523 229.882L211.44 243.787L206.367 239.531L230.451 225.626L235.523 229.882Z" fill="#E5FEA1"/>
<path d="M206.852 251.733C206.852 248.807 208.906 245.25 211.439 243.787L206.367 239.531C203.834 240.994 201.78 244.551 201.78 247.477L206.852 251.733Z" fill="#E5FEA1"/>
<mask id="path-74-inside-3_8618_9613" fill="white">
<path d="M206.852 251.732C206.852 248.807 208.906 245.25 211.439 243.787L235.523 229.883C238.056 228.42 240.11 229.606 240.11 232.531L240.11 260.34C240.11 263.265 238.056 266.823 235.523 268.285L211.439 282.19C208.906 283.653 206.852 282.467 206.852 279.542L206.852 251.732Z"/>
</mask>
<path d="M206.852 251.732C206.852 248.807 208.906 245.25 211.439 243.787L235.523 229.883C238.056 228.42 240.11 229.606 240.11 232.531L240.11 260.34C240.11 263.265 238.056 266.823 235.523 268.285L211.439 282.19C208.906 283.653 206.852 282.467 206.852 279.542L206.852 251.732Z" fill="#F5FFDB"/>
<path d="M206.508 251.931C206.508 248.786 208.716 244.962 211.439 243.39L235.179 229.684C237.902 228.112 240.11 229.386 240.11 232.531C240.11 229.825 238.056 228.817 235.523 230.28L211.439 244.184C209.096 245.537 207.196 248.828 207.196 251.534L206.508 251.931ZM240.11 265.637L206.852 284.838L240.11 265.637ZM211.439 282.19C208.716 283.762 206.508 282.488 206.508 279.343L206.508 251.931C206.508 248.786 208.716 244.962 211.439 243.39L211.439 244.184C209.096 245.537 207.196 248.828 207.196 251.534L207.196 279.343C207.196 282.268 209.096 283.543 211.439 282.19ZM240.11 227.234L240.11 265.637L240.11 227.234Z" fill="#202020" mask="url(#path-74-inside-3_8618_9613)"/>
<mask id="mask1_8618_9613" style="mask-type:alpha" maskUnits="userSpaceOnUse" x="214" y="237" width="21" height="36">
<rect width="24" height="24" transform="matrix(0.866025 -0.5 2.20305e-08 1 214 249)" fill="#D9D9D9"/>
</mask>
<g mask="url(#mask1_8618_9613)">
<path d="M226.191 254.692L230.121 252.423L230.121 250.923L226.191 253.192L226.191 254.692ZM226.191 251.808L230.121 249.539L230.121 248.039L226.191 250.308L226.191 251.808ZM218.663 261.961L224.992 258.308L224.992 257.95C224.992 257.283 224.706 256.925 224.135 256.874C223.564 256.823 222.795 257.076 221.828 257.635C220.86 258.193 220.091 258.827 219.52 259.538C218.949 260.249 218.663 260.937 218.663 261.604L218.663 261.961ZM221.828 256.327C222.248 256.084 222.606 255.707 222.901 255.197C223.196 254.686 223.343 254.188 223.343 253.702C223.343 253.216 223.196 252.888 222.901 252.718C222.606 252.548 222.248 252.584 221.828 252.827C221.407 253.07 221.049 253.447 220.754 253.957C220.459 254.468 220.312 254.966 220.312 255.452C220.312 255.938 220.459 256.266 220.754 256.436C221.049 256.606 221.407 256.57 221.828 256.327ZM217.731 266.346C217.293 266.599 216.923 266.638 216.62 266.463C216.317 266.287 216.165 265.947 216.165 265.442L216.165 254.058C216.165 253.553 216.317 253.037 216.62 252.513C216.923 251.988 217.293 251.599 217.731 251.346L231.054 243.654C231.491 243.401 231.862 243.363 232.165 243.537C232.468 243.712 232.62 244.053 232.62 244.558L232.62 255.942C232.62 256.447 232.468 256.962 232.165 257.488C231.862 258.013 231.491 258.401 231.054 258.654L217.731 266.346ZM217.731 264.846L231.054 257.154C231.121 257.115 231.182 257.048 231.237 256.952C231.293 256.856 231.32 256.769 231.32 256.692L231.32 245.308C231.32 245.231 231.293 245.176 231.237 245.144C231.182 245.112 231.121 245.115 231.054 245.154L217.731 252.846C217.664 252.885 217.603 252.952 217.547 253.048C217.492 253.144 217.464 253.231 217.464 253.308L217.464 264.692C217.464 264.769 217.492 264.824 217.547 264.856C217.603 264.888 217.664 264.885 217.731 264.846Z" fill="#202020"/>
</g>
<defs>
<clipPath id="clip0_8618_9613">
<rect width="51.8616" height="51.8616" fill="white" transform="matrix(0.866025 -0.5 2.20305e-08 1 12.0867 90.2769)"/>
</clipPath>
</defs>
</svg>
