<svg width="303" height="186" viewBox="0 0 303 186" fill="none" xmlns="http://www.w3.org/2000/svg">
<rect y="0.635742" width="303" height="184.729" rx="18.0223" fill="#FDEFF2"/>
<rect x="0.563197" y="1.19894" width="301.874" height="183.602" rx="17.4591" stroke="#202020" stroke-opacity="0.05" stroke-width="1.12639"/>
<g filter="url(#filter0_d_8659_6561)">
<rect x="27.0335" y="27.6689" width="116.019" height="31.539" rx="15.7695" fill="white"/>
</g>
<path d="M55.3744 46.5059L55.4848 44.5619L53.8528 45.6323L53.2672 44.6147L55.0096 43.7411L53.2672 42.8675L53.8528 41.8499L55.4848 42.9203L55.3744 40.9763H56.5408L56.4352 42.9203L58.0672 41.8499L58.6528 42.8675L56.9056 43.7411L58.6528 44.6147L58.0672 45.6323L56.4352 44.5619L56.5408 46.5059H55.3744ZM62.7135 46.5059L62.8239 44.5619L61.1919 45.6323L60.6064 44.6147L62.3487 43.7411L60.6064 42.8675L61.1919 41.8499L62.8239 42.9203L62.7135 40.9763H63.8799L63.7743 42.9203L65.4063 41.8499L65.9919 42.8675L64.2447 43.7411L65.9919 44.6147L65.4063 45.6323L63.7743 44.5619L63.8799 46.5059H62.7135ZM70.0527 46.5059L70.1631 44.5619L68.5311 45.6323L67.9455 44.6147L69.6879 43.7411L67.9455 42.8675L68.5311 41.8499L70.1631 42.9203L70.0527 40.9763H71.2191L71.1135 42.9203L72.7455 41.8499L73.3311 42.8675L71.5839 43.7411L73.3311 44.6147L72.7455 45.6323L71.1135 44.5619L71.2191 46.5059H70.0527ZM77.3919 46.5059L77.5023 44.5619L75.8703 45.6323L75.2847 44.6147L77.0271 43.7411L75.2847 42.8675L75.8703 41.8499L77.5023 42.9203L77.3919 40.9763H78.5583L78.4527 42.9203L80.0846 41.8499L80.6702 42.8675L78.9231 43.7411L80.6702 44.6147L80.0846 45.6323L78.4527 44.5619L78.5583 46.5059H77.3919ZM84.731 46.5059L84.8414 44.5619L83.2094 45.6323L82.6238 44.6147L84.3662 43.7411L82.6238 42.8675L83.2094 41.8499L84.8414 42.9203L84.731 40.9763H85.8974L85.7918 42.9203L87.4238 41.8499L88.0094 42.8675L86.2622 43.7411L88.0094 44.6147L87.4238 45.6323L85.7918 44.5619L85.8974 46.5059H84.731ZM92.0702 46.5059L92.1806 44.5619L90.5486 45.6323L89.963 44.6147L91.7054 43.7411L89.963 42.8675L90.5486 41.8499L92.1806 42.9203L92.0702 40.9763H93.2366L93.131 42.9203L94.763 41.8499L95.3486 42.8675L93.6014 43.7411L95.3486 44.6147L94.763 45.6323L93.131 44.5619L93.2366 46.5059H92.0702ZM99.4093 46.5059L99.5197 44.5619L97.8878 45.6323L97.3022 44.6147L99.0445 43.7411L97.3022 42.8675L97.8878 41.8499L99.5197 42.9203L99.4093 40.9763H100.576L100.47 42.9203L102.102 41.8499L102.688 42.8675L100.941 43.7411L102.688 44.6147L102.102 45.6323L100.47 44.5619L100.576 46.5059H99.4093ZM106.749 46.5059L106.859 44.5619L105.227 45.6323L104.641 44.6147L106.384 43.7411L104.641 42.8675L105.227 41.8499L106.859 42.9203L106.749 40.9763H107.915L107.809 42.9203L109.441 41.8499L110.027 42.8675L108.28 43.7411L110.027 44.6147L109.441 45.6323L107.809 44.5619L107.915 46.5059H106.749ZM114.088 46.5059L114.198 44.5619L112.566 45.6323L111.98 44.6147L113.723 43.7411L111.98 42.8675L112.566 41.8499L114.198 42.9203L114.088 40.9763H115.254L115.148 42.9203L116.78 41.8499L117.366 42.8675L115.619 43.7411L117.366 44.6147L116.78 45.6323L115.148 44.5619L115.254 46.5059H114.088Z" fill="#202020"/>
<rect opacity="0.6" x="47" y="41" width="76" height="5" rx="2.5" fill="#DF1C41"/>
<g filter="url(#filter1_d_8659_6561)">
<rect x="27.0335" y="77.2305" width="116.019" height="31.539" rx="15.7695" fill="white"/>
</g>
<path d="M64.4212 97.9888V88.1584H70.7188V89.6512H66.202V92.32H70.2868V93.8128H66.202V97.9888H64.4212ZM74.9391 98.1328C74.2191 98.1328 73.5951 97.9744 73.0671 97.6576C72.5392 97.3408 72.1296 96.8976 71.8384 96.328C71.5504 95.7584 71.4064 95.0928 71.4064 94.3312C71.4064 93.5696 71.5504 92.9024 71.8384 92.3296C72.1296 91.7568 72.5392 91.312 73.0671 90.9952C73.5951 90.6784 74.2191 90.52 74.9391 90.52C75.6591 90.52 76.2831 90.6784 76.8111 90.9952C77.3391 91.312 77.7471 91.7568 78.0351 92.3296C78.3263 92.9024 78.4719 93.5696 78.4719 94.3312C78.4719 95.0928 78.3263 95.7584 78.0351 96.328C77.7471 96.8976 77.3391 97.3408 76.8111 97.6576C76.2831 97.9744 75.6591 98.1328 74.9391 98.1328ZM74.9487 96.7408C75.3391 96.7408 75.6655 96.6336 75.9279 96.4192C76.1903 96.2016 76.3855 95.9104 76.5135 95.5456C76.6447 95.1808 76.7103 94.7744 76.7103 94.3264C76.7103 93.8752 76.6447 93.4672 76.5135 93.1024C76.3855 92.7344 76.1903 92.4416 75.9279 92.224C75.6655 92.0064 75.3391 91.8976 74.9487 91.8976C74.5487 91.8976 74.2159 92.0064 73.9503 92.224C73.6879 92.4416 73.4911 92.7344 73.3599 93.1024C73.2319 93.4672 73.1679 93.8752 73.1679 94.3264C73.1679 94.7744 73.2319 95.1808 73.3599 95.5456C73.4911 95.9104 73.6879 96.2016 73.9503 96.4192C74.2159 96.6336 74.5487 96.7408 74.9487 96.7408ZM79.9467 97.9888V90.616H81.6315V91.8448H81.7083C81.8427 91.4192 82.0731 91.0912 82.3995 90.8608C82.7291 90.6272 83.1051 90.5104 83.5275 90.5104C83.6235 90.5104 83.7307 90.5152 83.8491 90.5248C83.9707 90.5312 84.0715 90.5424 84.1515 90.5584V92.1568C84.0779 92.1312 83.9611 92.1088 83.8011 92.0896C83.6443 92.0672 83.4923 92.056 83.3451 92.056C83.0283 92.056 82.7435 92.1248 82.4907 92.2624C82.2411 92.3968 82.0443 92.584 81.9003 92.824C81.7563 93.064 81.6843 93.3408 81.6843 93.6544V97.9888H79.9467ZM88.2087 100.907C87.5847 100.907 87.0487 100.822 86.6007 100.653C86.1527 100.486 85.7927 100.262 85.5207 99.9808C85.2487 99.6992 85.0599 99.3872 84.9543 99.0448L86.5191 98.6656C86.5895 98.8096 86.6919 98.952 86.8263 99.0928C86.9607 99.2368 87.1415 99.3552 87.3687 99.448C87.5991 99.544 87.8887 99.592 88.2375 99.592C88.7303 99.592 89.1383 99.472 89.4615 99.232C89.7847 98.9952 89.9463 98.6048 89.9463 98.0608V96.664H89.8599C89.7703 96.8432 89.6391 97.0272 89.4663 97.216C89.2967 97.4048 89.0711 97.5632 88.7895 97.6912C88.5111 97.8192 88.1607 97.8832 87.7383 97.8832C87.1719 97.8832 86.6583 97.7504 86.1975 97.4848C85.7399 97.216 85.3751 96.816 85.1031 96.2848C84.8343 95.7504 84.6999 95.0816 84.6999 94.2784C84.6999 93.4688 84.8343 92.7856 85.1031 92.2288C85.3751 91.6688 85.7415 91.2448 86.2023 90.9568C86.6631 90.6656 87.1767 90.52 87.7431 90.52C88.1751 90.52 88.5303 90.5936 88.8087 90.7408C89.0903 90.8848 89.3143 91.0592 89.4807 91.264C89.6471 91.4656 89.7735 91.656 89.8599 91.8352H89.9559V90.616H91.6694V98.1088C91.6694 98.7392 91.5191 99.2608 91.2183 99.6736C90.9175 100.086 90.5063 100.395 89.9847 100.6C89.4631 100.805 88.8711 100.907 88.2087 100.907ZM88.2231 96.52C88.5911 96.52 88.9047 96.4304 89.1639 96.2512C89.4231 96.072 89.6199 95.8144 89.7543 95.4784C89.8887 95.1424 89.9559 94.7392 89.9559 94.2688C89.9559 93.8048 89.8887 93.3984 89.7543 93.0496C89.6231 92.7008 89.4279 92.4304 89.1687 92.2384C88.9127 92.0432 88.5975 91.9456 88.2231 91.9456C87.8359 91.9456 87.5127 92.0464 87.2535 92.248C86.9943 92.4496 86.7991 92.7264 86.6679 93.0784C86.5367 93.4272 86.4711 93.824 86.4711 94.2688C86.4711 94.72 86.5367 95.1152 86.6679 95.4544C86.8023 95.7904 86.9991 96.0528 87.2583 96.2416C87.5207 96.4272 87.8423 96.52 88.2231 96.52ZM96.7142 98.1328C95.975 98.1328 95.3366 97.9792 94.799 97.672C94.2646 97.3616 93.8534 96.9232 93.5654 96.3568C93.2774 95.7872 93.1334 95.1168 93.1334 94.3456C93.1334 93.5872 93.2774 92.9216 93.5654 92.3488C93.8566 91.7728 94.263 91.3248 94.7846 91.0048C95.3062 90.6816 95.919 90.52 96.623 90.52C97.0774 90.52 97.5062 90.5936 97.9094 90.7408C98.3158 90.8848 98.6742 91.1088 98.9846 91.4128C99.2982 91.7168 99.5446 92.104 99.7238 92.5744C99.903 93.0416 99.9926 93.5984 99.9926 94.2448V94.7776H93.9494V93.6064H98.327C98.3238 93.2736 98.2518 92.9776 98.111 92.7184C97.9702 92.456 97.7734 92.2496 97.5206 92.0992C97.271 91.9488 96.9798 91.8736 96.647 91.8736C96.2918 91.8736 95.9798 91.96 95.711 92.1328C95.4422 92.3024 95.2326 92.5264 95.0822 92.8048C94.935 93.08 94.8598 93.3824 94.8566 93.712V94.7344C94.8566 95.1632 94.935 95.5312 95.0918 95.8384C95.2486 96.1424 95.4678 96.376 95.7494 96.5392C96.031 96.6992 96.3606 96.7792 96.7382 96.7792C96.991 96.7792 97.2198 96.744 97.4246 96.6736C97.6294 96.6 97.807 96.4928 97.9574 96.352C98.1078 96.2112 98.2214 96.0368 98.2982 95.8288L99.9206 96.0112C99.8182 96.44 99.623 96.8144 99.335 97.1344C99.0502 97.4512 98.6854 97.6976 98.2406 97.8736C97.7958 98.0464 97.287 98.1328 96.7142 98.1328ZM105.144 90.616V91.96H100.906V90.616H105.144ZM101.952 88.8496H103.69V95.7712C103.69 96.0048 103.725 96.184 103.795 96.3088C103.869 96.4304 103.965 96.5136 104.083 96.5584C104.202 96.6032 104.333 96.6256 104.477 96.6256C104.586 96.6256 104.685 96.6176 104.775 96.6016C104.867 96.5856 104.938 96.5712 104.986 96.5584L105.279 97.9168C105.186 97.9488 105.053 97.984 104.88 98.0224C104.711 98.0608 104.503 98.0832 104.256 98.0896C103.821 98.1024 103.429 98.0368 103.08 97.8928C102.731 97.7456 102.455 97.5184 102.25 97.2112C102.048 96.904 101.949 96.52 101.952 96.0592V88.8496Z" fill="#202020"/>
<rect opacity="0.6" x="51.8141" y="90.7471" width="66.4573" height="5.63197" rx="2.81599" fill="#DF1C41"/>
<g filter="url(#filter2_d_8659_6561)">
<rect x="27.0335" y="126.792" width="116.019" height="31.539" rx="15.7695" fill="white"/>
</g>
<path d="M55.3744 145.628L55.4848 143.684L53.8528 144.755L53.2672 143.737L55.0096 142.864L53.2672 141.99L53.8528 140.972L55.4848 142.043L55.3744 140.099H56.5408L56.4352 142.043L58.0672 140.972L58.6528 141.99L56.9056 142.864L58.6528 143.737L58.0672 144.755L56.4352 143.684L56.5408 145.628H55.3744ZM62.7136 145.628L62.8239 143.684L61.192 144.755L60.6064 143.737L62.3488 142.864L60.6064 141.99L61.192 140.972L62.8239 142.043L62.7136 140.099H63.8799L63.7743 142.043L65.4063 140.972L65.9919 141.99L64.2447 142.864L65.9919 143.737L65.4063 144.755L63.7743 143.684L63.8799 145.628H62.7136ZM70.0527 145.628L70.1631 143.684L68.5311 144.755L67.9455 143.737L69.6879 142.864L67.9455 141.99L68.5311 140.972L70.1631 142.043L70.0527 140.099H71.2191L71.1135 142.043L72.7455 140.972L73.3311 141.99L71.5839 142.864L73.3311 143.737L72.7455 144.755L71.1135 143.684L71.2191 145.628H70.0527ZM77.3919 145.628L77.5023 143.684L75.8703 144.755L75.2847 143.737L77.0271 142.864L75.2847 141.99L75.8703 140.972L77.5023 142.043L77.3919 140.099H78.5583L78.4527 142.043L80.0847 140.972L80.6703 141.99L78.9231 142.864L80.6703 143.737L80.0847 144.755L78.4527 143.684L78.5583 145.628H77.3919ZM84.731 145.628L84.8414 143.684L83.2094 144.755L82.6238 143.737L84.3662 142.864L82.6238 141.99L83.2094 140.972L84.8414 142.043L84.731 140.099H85.8974L85.7918 142.043L87.4238 140.972L88.0094 141.99L86.2622 142.864L88.0094 143.737L87.4238 144.755L85.7918 143.684L85.8974 145.628H84.731ZM92.0702 145.628L92.1806 143.684L90.5486 144.755L89.963 143.737L91.7054 142.864L89.963 141.99L90.5486 140.972L92.1806 142.043L92.0702 140.099H93.2366L93.131 142.043L94.763 140.972L95.3486 141.99L93.6014 142.864L95.3486 143.737L94.763 144.755L93.131 143.684L93.2366 145.628H92.0702ZM99.4094 145.628L99.5198 143.684L97.8878 144.755L97.3022 143.737L99.0446 142.864L97.3022 141.99L97.8878 140.972L99.5198 142.043L99.4094 140.099H100.576L100.47 142.043L102.102 140.972L102.688 141.99L100.941 142.864L102.688 143.737L102.102 144.755L100.47 143.684L100.576 145.628H99.4094ZM106.749 145.628L106.859 143.684L105.227 144.755L104.641 143.737L106.384 142.864L104.641 141.99L105.227 140.972L106.859 142.043L106.749 140.099H107.915L107.809 142.043L109.441 140.972L110.027 141.99L108.28 142.864L110.027 143.737L109.441 144.755L107.809 143.684L107.915 145.628H106.749ZM114.088 145.628L114.198 143.684L112.566 144.755L111.98 143.737L113.723 142.864L111.98 141.99L112.566 140.972L114.198 142.043L114.088 140.099H115.254L115.148 142.043L116.78 140.972L117.366 141.99L115.619 142.864L117.366 143.737L116.78 144.755L115.148 143.684L115.254 145.628H114.088Z" fill="#202020"/>
<rect opacity="0.6" x="45" y="140" width="80" height="5" rx="2.5" fill="#DF1C41"/>
<g filter="url(#filter3_d_8659_6561)">
<rect x="159.948" y="27.6689" width="116.019" height="31.539" rx="15.7695" fill="white"/>
</g>
<path d="M188.289 46.5059L188.399 44.5619L186.767 45.6323L186.181 44.6147L187.924 43.7411L186.181 42.8675L186.767 41.8499L188.399 42.9203L188.289 40.9763H189.455L189.349 42.9203L190.981 41.8499L191.567 42.8675L189.82 43.7411L191.567 44.6147L190.981 45.6323L189.349 44.5619L189.455 46.5059H188.289ZM195.628 46.5059L195.738 44.5619L194.106 45.6323L193.521 44.6147L195.263 43.7411L193.521 42.8675L194.106 41.8499L195.738 42.9203L195.628 40.9763H196.794L196.689 42.9203L198.321 41.8499L198.906 42.8675L197.159 43.7411L198.906 44.6147L198.321 45.6323L196.689 44.5619L196.794 46.5059H195.628ZM202.967 46.5059L203.077 44.5619L201.445 45.6323L200.86 44.6147L202.602 43.7411L200.86 42.8675L201.445 41.8499L203.077 42.9203L202.967 40.9763H204.133L204.028 42.9203L205.66 41.8499L206.245 42.8675L204.498 43.7411L206.245 44.6147L205.66 45.6323L204.028 44.5619L204.133 46.5059H202.967ZM210.306 46.5059L210.417 44.5619L208.785 45.6323L208.199 44.6147L209.941 43.7411L208.199 42.8675L208.785 41.8499L210.417 42.9203L210.306 40.9763H211.473L211.367 42.9203L212.999 41.8499L213.585 42.8675L211.837 43.7411L213.585 44.6147L212.999 45.6323L211.367 44.5619L211.473 46.5059H210.306ZM217.645 46.5059L217.756 44.5619L216.124 45.6323L215.538 44.6147L217.28 43.7411L215.538 42.8675L216.124 41.8499L217.756 42.9203L217.645 40.9763H218.812L218.706 42.9203L220.338 41.8499L220.924 42.8675L219.176 43.7411L220.924 44.6147L220.338 45.6323L218.706 44.5619L218.812 46.5059H217.645ZM224.984 46.5059L225.095 44.5619L223.463 45.6323L222.877 44.6147L224.62 43.7411L222.877 42.8675L223.463 41.8499L225.095 42.9203L224.984 40.9763H226.151L226.045 42.9203L227.677 41.8499L228.263 42.8675L226.516 43.7411L228.263 44.6147L227.677 45.6323L226.045 44.5619L226.151 46.5059H224.984ZM232.324 46.5059L232.434 44.5619L230.802 45.6323L230.216 44.6147L231.959 43.7411L230.216 42.8675L230.802 41.8499L232.434 42.9203L232.324 40.9763H233.49L233.384 42.9203L235.016 41.8499L235.602 42.8675L233.855 43.7411L235.602 44.6147L235.016 45.6323L233.384 44.5619L233.49 46.5059H232.324ZM239.663 46.5059L239.773 44.5619L238.141 45.6323L237.556 44.6147L239.298 43.7411L237.556 42.8675L238.141 41.8499L239.773 42.9203L239.663 40.9763H240.829L240.724 42.9203L242.356 41.8499L242.941 42.8675L241.194 43.7411L242.941 44.6147L242.356 45.6323L240.724 44.5619L240.829 46.5059H239.663ZM247.002 46.5059L247.112 44.5619L245.48 45.6323L244.895 44.6147L246.637 43.7411L244.895 42.8675L245.48 41.8499L247.112 42.9203L247.002 40.9763H248.168L248.063 42.9203L249.695 41.8499L250.28 42.8675L248.533 43.7411L250.28 44.6147L249.695 45.6323L248.063 44.5619L248.168 46.5059H247.002Z" fill="#202020"/>
<rect opacity="0.6" x="178" y="41" width="80" height="5" rx="2.5" fill="#DF1C41"/>
<g filter="url(#filter4_d_8659_6561)">
<rect x="159.948" y="77.2305" width="116.019" height="31.539" rx="15.7695" fill="white"/>
</g>
<path d="M188.289 96.0674L188.399 94.1234L186.767 95.1938L186.181 94.1762L187.924 93.3026L186.181 92.429L186.767 91.4114L188.399 92.4818L188.289 90.5378H189.455L189.349 92.4818L190.981 91.4114L191.567 92.429L189.82 93.3026L191.567 94.1762L190.981 95.1938L189.349 94.1234L189.455 96.0674H188.289ZM195.628 96.0674L195.738 94.1234L194.106 95.1938L193.521 94.1762L195.263 93.3026L193.521 92.429L194.106 91.4114L195.738 92.4818L195.628 90.5378H196.794L196.689 92.4818L198.321 91.4114L198.906 92.429L197.159 93.3026L198.906 94.1762L198.321 95.1938L196.689 94.1234L196.794 96.0674H195.628ZM202.967 96.0674L203.077 94.1234L201.445 95.1938L200.86 94.1762L202.602 93.3026L200.86 92.429L201.445 91.4114L203.077 92.4818L202.967 90.5378H204.133L204.028 92.4818L205.66 91.4114L206.245 92.429L204.498 93.3026L206.245 94.1762L205.66 95.1938L204.028 94.1234L204.133 96.0674H202.967ZM210.306 96.0674L210.417 94.1234L208.785 95.1938L208.199 94.1762L209.941 93.3026L208.199 92.429L208.785 91.4114L210.417 92.4818L210.306 90.5378H211.473L211.367 92.4818L212.999 91.4114L213.585 92.429L211.837 93.3026L213.585 94.1762L212.999 95.1938L211.367 94.1234L211.473 96.0674H210.306ZM217.645 96.0674L217.756 94.1234L216.124 95.1938L215.538 94.1762L217.28 93.3026L215.538 92.429L216.124 91.4114L217.756 92.4818L217.645 90.5378H218.812L218.706 92.4818L220.338 91.4114L220.924 92.429L219.176 93.3026L220.924 94.1762L220.338 95.1938L218.706 94.1234L218.812 96.0674H217.645ZM224.984 96.0674L225.095 94.1234L223.463 95.1938L222.877 94.1762L224.62 93.3026L222.877 92.429L223.463 91.4114L225.095 92.4818L224.984 90.5378H226.151L226.045 92.4818L227.677 91.4114L228.263 92.429L226.516 93.3026L228.263 94.1762L227.677 95.1938L226.045 94.1234L226.151 96.0674H224.984ZM232.324 96.0674L232.434 94.1234L230.802 95.1938L230.216 94.1762L231.959 93.3026L230.216 92.429L230.802 91.4114L232.434 92.4818L232.324 90.5378H233.49L233.384 92.4818L235.016 91.4114L235.602 92.429L233.855 93.3026L235.602 94.1762L235.016 95.1938L233.384 94.1234L233.49 96.0674H232.324ZM239.663 96.0674L239.773 94.1234L238.141 95.1938L237.556 94.1762L239.298 93.3026L237.556 92.429L238.141 91.4114L239.773 92.4818L239.663 90.5378H240.829L240.724 92.4818L242.356 91.4114L242.941 92.429L241.194 93.3026L242.941 94.1762L242.356 95.1938L240.724 94.1234L240.829 96.0674H239.663ZM247.002 96.0674L247.112 94.1234L245.48 95.1938L244.895 94.1762L246.637 93.3026L244.895 92.429L245.48 91.4114L247.112 92.4818L247.002 90.5378H248.168L248.063 92.4818L249.695 91.4114L250.28 92.429L248.533 93.3026L250.28 94.1762L249.695 95.1938L248.063 94.1234L248.168 96.0674H247.002Z" fill="#202020"/>
<rect opacity="0.6" x="178" y="91" width="80" height="5" rx="2.5" fill="#DF1C41"/>
<g filter="url(#filter5_d_8659_6561)">
<rect x="159.948" y="126.792" width="116.019" height="31.539" rx="15.7695" fill="white"/>
</g>
<path d="M189.654 137.72V147.55H188.07L183.438 140.854H183.356V147.55H181.575V137.72H183.169L187.796 144.421H187.883V137.72H189.654ZM194.781 147.694C194.042 147.694 193.404 147.541 192.866 147.233C192.332 146.923 191.921 146.485 191.633 145.918C191.345 145.349 191.201 144.678 191.201 143.907C191.201 143.149 191.345 142.483 191.633 141.91C191.924 141.334 192.33 140.886 192.852 140.566C193.373 140.243 193.986 140.082 194.69 140.082C195.145 140.082 195.573 140.155 195.977 140.302C196.383 140.446 196.741 140.67 197.052 140.974C197.365 141.278 197.612 141.666 197.791 142.136C197.97 142.603 198.06 143.16 198.06 143.806V144.339H192.017V143.168H196.394C196.391 142.835 196.319 142.539 196.178 142.28C196.037 142.018 195.841 141.811 195.588 141.661C195.338 141.51 195.047 141.435 194.714 141.435C194.359 141.435 194.047 141.522 193.778 141.694C193.509 141.864 193.3 142.088 193.149 142.366C193.002 142.642 192.927 142.944 192.924 143.274V144.296C192.924 144.725 193.002 145.093 193.159 145.4C193.316 145.704 193.535 145.938 193.817 146.101C194.098 146.261 194.428 146.341 194.805 146.341C195.058 146.341 195.287 146.305 195.492 146.235C195.697 146.162 195.874 146.054 196.025 145.914C196.175 145.773 196.289 145.598 196.365 145.39L197.988 145.573C197.885 146.002 197.69 146.376 197.402 146.696C197.117 147.013 196.753 147.259 196.308 147.435C195.863 147.608 195.354 147.694 194.781 147.694ZM205.904 140.178L203.278 147.55H201.358L198.733 140.178H200.586L202.28 145.654H202.357L204.056 140.178H205.904ZM210.12 147.694C209.38 147.694 208.742 147.541 208.204 147.233C207.67 146.923 207.259 146.485 206.971 145.918C206.683 145.349 206.539 144.678 206.539 143.907C206.539 143.149 206.683 142.483 206.971 141.91C207.262 141.334 207.668 140.886 208.19 140.566C208.712 140.243 209.324 140.082 210.028 140.082C210.483 140.082 210.912 140.155 211.315 140.302C211.721 140.446 212.08 140.67 212.39 140.974C212.704 141.278 212.95 141.666 213.129 142.136C213.308 142.603 213.398 143.16 213.398 143.806V144.339H207.355V143.168H211.732C211.729 142.835 211.657 142.539 211.516 142.28C211.376 142.018 211.179 141.811 210.926 141.661C210.676 141.51 210.385 141.435 210.052 141.435C209.697 141.435 209.385 141.522 209.116 141.694C208.848 141.864 208.638 142.088 208.488 142.366C208.34 142.642 208.265 142.944 208.262 143.274V144.296C208.262 144.725 208.34 145.093 208.497 145.4C208.654 145.704 208.873 145.938 209.155 146.101C209.436 146.261 209.766 146.341 210.144 146.341C210.396 146.341 210.625 146.305 210.83 146.235C211.035 146.162 211.212 146.054 211.363 145.914C211.513 145.773 211.627 145.598 211.704 145.39L213.326 145.573C213.224 146.002 213.028 146.376 212.74 146.696C212.456 147.013 212.091 147.259 211.646 147.435C211.201 147.608 210.692 147.694 210.12 147.694ZM214.868 147.55V140.178H216.553V141.406H216.63C216.764 140.981 216.994 140.653 217.321 140.422C217.65 140.189 218.026 140.072 218.449 140.072C218.545 140.072 218.652 140.077 218.77 140.086C218.892 140.093 218.993 140.104 219.073 140.12V141.718C218.999 141.693 218.882 141.67 218.722 141.651C218.566 141.629 218.414 141.618 218.266 141.618C217.95 141.618 217.665 141.686 217.412 141.824C217.162 141.958 216.966 142.146 216.822 142.386C216.678 142.626 216.606 142.902 216.606 143.216V147.55H214.868ZM223.58 147.55V140.178H225.241V141.43H225.327C225.481 141.008 225.735 140.678 226.09 140.442C226.446 140.202 226.87 140.082 227.362 140.082C227.862 140.082 228.282 140.203 228.625 140.446C228.97 140.686 229.214 141.014 229.354 141.43H229.431C229.594 141.021 229.87 140.694 230.257 140.451C230.647 140.205 231.11 140.082 231.644 140.082C232.322 140.082 232.876 140.296 233.305 140.725C233.734 141.154 233.948 141.779 233.948 142.602V147.55H232.206V142.87C232.206 142.413 232.084 142.078 231.841 141.867C231.598 141.653 231.3 141.546 230.948 141.546C230.529 141.546 230.201 141.677 229.964 141.939C229.73 142.198 229.614 142.536 229.614 142.952V147.55H227.91V142.798C227.91 142.418 227.794 142.114 227.564 141.886C227.337 141.659 227.039 141.546 226.671 141.546C226.422 141.546 226.194 141.61 225.99 141.738C225.785 141.862 225.622 142.04 225.5 142.27C225.378 142.498 225.318 142.763 225.318 143.067V147.55H223.58ZM235.711 147.55V140.178H237.448V147.55H235.711ZM236.584 139.131C236.309 139.131 236.072 139.04 235.874 138.858C235.676 138.672 235.576 138.45 235.576 138.19C235.576 137.928 235.676 137.706 235.874 137.523C236.072 137.338 236.309 137.245 236.584 137.245C236.863 137.245 237.1 137.338 237.295 137.523C237.493 137.706 237.592 137.928 237.592 138.19C237.592 138.45 237.493 138.672 237.295 138.858C237.1 139.04 236.863 139.131 236.584 139.131ZM240.973 143.23V147.55H239.235V140.178H240.896V141.43H240.982C241.152 141.018 241.422 140.69 241.793 140.446C242.168 140.203 242.63 140.082 243.181 140.082C243.689 140.082 244.133 140.19 244.51 140.408C244.891 140.626 245.185 140.941 245.393 141.354C245.605 141.766 245.709 142.267 245.705 142.856V147.55H243.968V143.125C243.968 142.632 243.84 142.246 243.584 141.968C243.331 141.69 242.981 141.55 242.533 141.55C242.229 141.55 241.958 141.618 241.721 141.752C241.488 141.883 241.304 142.074 241.169 142.323C241.038 142.573 240.973 142.875 240.973 143.23ZM250.208 147.68C249.629 147.68 249.11 147.531 248.653 147.233C248.195 146.936 247.833 146.504 247.568 145.938C247.302 145.371 247.169 144.683 247.169 143.874C247.169 143.054 247.304 142.363 247.573 141.8C247.845 141.234 248.211 140.806 248.672 140.518C249.133 140.227 249.646 140.082 250.213 140.082C250.645 140.082 251 140.155 251.278 140.302C251.557 140.446 251.777 140.621 251.941 140.826C252.104 141.027 252.23 141.218 252.32 141.397H252.392V137.72H254.134V147.55H252.425V146.389H252.32C252.23 146.568 252.101 146.758 251.931 146.96C251.761 147.158 251.537 147.328 251.259 147.469C250.981 147.609 250.63 147.68 250.208 147.68ZM250.693 146.254C251.061 146.254 251.374 146.155 251.633 145.957C251.893 145.755 252.089 145.475 252.224 145.117C252.358 144.758 252.425 144.341 252.425 143.864C252.425 143.387 252.358 142.973 252.224 142.621C252.093 142.269 251.897 141.995 251.638 141.8C251.382 141.605 251.067 141.507 250.693 141.507C250.305 141.507 249.982 141.608 249.723 141.81C249.464 142.011 249.269 142.29 249.137 142.645C249.006 143 248.941 143.406 248.941 143.864C248.941 144.325 249.006 144.736 249.137 145.098C249.272 145.456 249.469 145.739 249.728 145.947C249.99 146.152 250.312 146.254 250.693 146.254Z" fill="#202020"/>
<rect opacity="0.6" x="175.717" y="140.309" width="83.3532" height="5.63197" rx="2.81599" fill="#DF1C41"/>
<defs>
<filter id="filter0_d_8659_6561" x="27.0335" y="27.6689" width="118.271" height="33.7919" filterUnits="userSpaceOnUse" color-interpolation-filters="sRGB">
<feFlood flood-opacity="0" result="BackgroundImageFix"/>
<feColorMatrix in="SourceAlpha" type="matrix" values="0 0 0 0 0 0 0 0 0 0 0 0 0 0 0 0 0 0 127 0" result="hardAlpha"/>
<feOffset dx="2.25279" dy="2.25279"/>
<feComposite in2="hardAlpha" operator="out"/>
<feColorMatrix type="matrix" values="0 0 0 0 0.940169 0 0 0 0 0.848953 0 0 0 0 0.868499 0 0 0 1 0"/>
<feBlend mode="normal" in2="BackgroundImageFix" result="effect1_dropShadow_8659_6561"/>
<feBlend mode="normal" in="SourceGraphic" in2="effect1_dropShadow_8659_6561" result="shape"/>
</filter>
<filter id="filter1_d_8659_6561" x="27.0335" y="77.2305" width="118.271" height="33.7919" filterUnits="userSpaceOnUse" color-interpolation-filters="sRGB">
<feFlood flood-opacity="0" result="BackgroundImageFix"/>
<feColorMatrix in="SourceAlpha" type="matrix" values="0 0 0 0 0 0 0 0 0 0 0 0 0 0 0 0 0 0 127 0" result="hardAlpha"/>
<feOffset dx="2.25279" dy="2.25279"/>
<feComposite in2="hardAlpha" operator="out"/>
<feColorMatrix type="matrix" values="0 0 0 0 0.940169 0 0 0 0 0.848953 0 0 0 0 0.868499 0 0 0 1 0"/>
<feBlend mode="normal" in2="BackgroundImageFix" result="effect1_dropShadow_8659_6561"/>
<feBlend mode="normal" in="SourceGraphic" in2="effect1_dropShadow_8659_6561" result="shape"/>
</filter>
<filter id="filter2_d_8659_6561" x="27.0335" y="126.792" width="118.271" height="33.7919" filterUnits="userSpaceOnUse" color-interpolation-filters="sRGB">
<feFlood flood-opacity="0" result="BackgroundImageFix"/>
<feColorMatrix in="SourceAlpha" type="matrix" values="0 0 0 0 0 0 0 0 0 0 0 0 0 0 0 0 0 0 127 0" result="hardAlpha"/>
<feOffset dx="2.25279" dy="2.25279"/>
<feComposite in2="hardAlpha" operator="out"/>
<feColorMatrix type="matrix" values="0 0 0 0 0.940169 0 0 0 0 0.848953 0 0 0 0 0.868499 0 0 0 1 0"/>
<feBlend mode="normal" in2="BackgroundImageFix" result="effect1_dropShadow_8659_6561"/>
<feBlend mode="normal" in="SourceGraphic" in2="effect1_dropShadow_8659_6561" result="shape"/>
</filter>
<filter id="filter3_d_8659_6561" x="159.948" y="27.6689" width="118.271" height="33.7919" filterUnits="userSpaceOnUse" color-interpolation-filters="sRGB">
<feFlood flood-opacity="0" result="BackgroundImageFix"/>
<feColorMatrix in="SourceAlpha" type="matrix" values="0 0 0 0 0 0 0 0 0 0 0 0 0 0 0 0 0 0 127 0" result="hardAlpha"/>
<feOffset dx="2.25279" dy="2.25279"/>
<feComposite in2="hardAlpha" operator="out"/>
<feColorMatrix type="matrix" values="0 0 0 0 0.940169 0 0 0 0 0.848953 0 0 0 0 0.868499 0 0 0 1 0"/>
<feBlend mode="normal" in2="BackgroundImageFix" result="effect1_dropShadow_8659_6561"/>
<feBlend mode="normal" in="SourceGraphic" in2="effect1_dropShadow_8659_6561" result="shape"/>
</filter>
<filter id="filter4_d_8659_6561" x="159.948" y="77.2305" width="118.271" height="33.7919" filterUnits="userSpaceOnUse" color-interpolation-filters="sRGB">
<feFlood flood-opacity="0" result="BackgroundImageFix"/>
<feColorMatrix in="SourceAlpha" type="matrix" values="0 0 0 0 0 0 0 0 0 0 0 0 0 0 0 0 0 0 127 0" result="hardAlpha"/>
<feOffset dx="2.25279" dy="2.25279"/>
<feComposite in2="hardAlpha" operator="out"/>
<feColorMatrix type="matrix" values="0 0 0 0 0.940169 0 0 0 0 0.848953 0 0 0 0 0.868499 0 0 0 1 0"/>
<feBlend mode="normal" in2="BackgroundImageFix" result="effect1_dropShadow_8659_6561"/>
<feBlend mode="normal" in="SourceGraphic" in2="effect1_dropShadow_8659_6561" result="shape"/>
</filter>
<filter id="filter5_d_8659_6561" x="159.948" y="126.792" width="118.271" height="33.7919" filterUnits="userSpaceOnUse" color-interpolation-filters="sRGB">
<feFlood flood-opacity="0" result="BackgroundImageFix"/>
<feColorMatrix in="SourceAlpha" type="matrix" values="0 0 0 0 0 0 0 0 0 0 0 0 0 0 0 0 0 0 127 0" result="hardAlpha"/>
<feOffset dx="2.25279" dy="2.25279"/>
<feComposite in2="hardAlpha" operator="out"/>
<feColorMatrix type="matrix" values="0 0 0 0 0.940169 0 0 0 0 0.848953 0 0 0 0 0.868499 0 0 0 1 0"/>
<feBlend mode="normal" in2="BackgroundImageFix" result="effect1_dropShadow_8659_6561"/>
<feBlend mode="normal" in="SourceGraphic" in2="effect1_dropShadow_8659_6561" result="shape"/>
</filter>
</defs>
</svg>
