<svg width="321" height="186" viewBox="0 0 321 186" fill="none" xmlns="http://www.w3.org/2000/svg">
<path d="M185 149V177.5C185 181.918 181.418 185.5 177 185.5H109C104.582 185.5 101 181.918 101 177.5V171.5" stroke="black" stroke-opacity="0.1"/>
<path d="M99.5 133V83.5C99.5 79.0817 103.082 75.5 107.5 75.5H138.5" stroke="black" stroke-opacity="0.1"/>
<path d="M118.929 50.0713C118.929 46.7567 120.273 43.7559 122.445 41.5842C124.617 39.4137 127.616 38.0713 130.929 38.0713H223.929C230.556 38.0713 235.929 43.4439 235.929 50.0713V143.071C235.929 146.384 234.587 149.383 232.416 151.555C230.244 153.727 227.244 155.071 223.929 155.071H130.929C124.302 155.071 118.929 149.699 118.929 143.071V50.0713Z" fill="black" stroke="#202020"/>
<path d="M243 43C243 36.3726 237.627 31 231 31L223.929 38.0711C230.556 38.0711 235.929 43.4437 235.929 50.0711L243 43Z" fill="#E5FEA1" stroke="#202020" stroke-linejoin="round"/>
<path d="M231 31H138L130.929 38.0711H223.929L231 31Z" fill="#E5FEA1" stroke="#202020" stroke-linejoin="round"/>
<path d="M243 136V43L235.929 50.0711V143.071L243 136Z" fill="#E5FEA1" stroke="#202020" stroke-linejoin="round"/>
<path d="M129.516 34.5129C131.688 32.3424 134.687 31 138 31L130.929 38.0711C127.616 38.0711 124.617 39.4135 122.445 41.584L129.516 34.5129Z" fill="#E5FEA1" stroke="#202020" stroke-linejoin="round"/>
<path d="M239.487 144.483C241.658 142.312 243 139.313 243 136L235.929 143.071C235.929 146.384 234.587 149.383 232.416 151.555L239.487 144.483Z" fill="#E5FEA1" stroke="#202020" stroke-linejoin="round"/>
<path d="M126 42.9998C126 39.687 127.342 36.6877 129.513 34.5163L122.445 41.5838C120.273 43.7555 118.929 46.7562 118.929 50.0708L126 42.9998Z" fill="#E5FEA1"/>
<path d="M231 148C234.313 148 237.312 146.657 239.484 144.487L232.416 151.554C230.244 153.727 227.244 155.071 223.929 155.071L231 148Z" fill="#E5FEA1"/>
<path d="M126 43V136L118.929 143.071V50.0711L126 43Z" fill="#E5FEA1"/>
<path d="M138 148H231L223.929 155.071H130.929L138 148Z" fill="#E5FEA1"/>
<path d="M126 136C126 142.627 131.373 148 138 148L130.929 155.071C124.302 155.071 118.929 149.698 118.929 143.071L126 136Z" fill="#E5FEA1"/>
<rect x="126" y="31" width="117" height="117" rx="12" fill="#F5FFDB" stroke="#202020"/>
<path d="M174.272 103.749C177.064 106.081 180.807 106.838 184.247 106.831C187.895 106.858 191.57 105.532 194.335 103.156C194.781 102.781 196.053 102.73 193.769 100.47C191.301 98.0358 191.56 99.1438 191.219 99.379C189.211 100.756 186.944 101.823 184.472 101.823C182.055 101.868 179.549 100.637 178.643 98.3596C178.414 97.8448 178.233 97.1732 175.083 100.201C172.51 102.696 173.669 103.282 174.272 103.76L174.272 103.749Z" fill="black"/>
<path d="M175.615 81.5053C174.865 77.1519 168.381 77.3155 168.084 81.7849C167.464 87.8667 177.343 87.0826 175.615 81.5053Z" fill="black"/>
<path d="M191.961 81.7849C191.341 87.8667 201.22 87.0826 199.492 81.5053C198.742 77.1519 192.258 77.3155 191.961 81.7849Z" fill="black"/>
<path d="M145.655 108.884C145.751 111.335 146.041 113.851 146.797 116.51C147.183 117.836 147.732 119.234 148.543 120.577C148.989 121.276 149.388 121.818 149.835 122.374C150.282 122.923 150.759 123.454 151.257 123.952C151.782 124.477 152.337 124.975 152.924 125.435C153.51 125.899 154.093 126.308 154.836 126.734C156.258 127.538 157.717 128.016 159.094 128.34C161.869 128.977 164.453 129.134 167 129.239C167.838 129.274 169.052 130.163 169.171 126.952C169.301 123.488 168.046 124.422 167.296 124.351C164.958 124.122 162.619 123.949 160.482 123.488C159.418 123.253 158.405 122.956 157.54 122.503C156.718 122.094 155.811 121.395 155.071 120.679C154.328 119.957 153.65 119.101 153.159 118.218C152.695 117.396 152.416 116.421 152.252 115.382C151.938 113.278 152.102 110.957 152.583 108.635C152.801 107.554 153.098 105.983 148.734 106.105C145.154 106.211 145.601 107.79 145.635 108.874L145.655 108.884Z" fill="black"/>
<path d="M151.826 67.2275C152.061 66.1638 152.358 65.1513 152.811 64.2854C153.22 63.4638 153.919 62.557 154.635 61.8173C155.358 61.0741 156.214 60.3957 157.096 59.9048C157.918 59.4411 158.893 59.1616 159.933 58.9979C162.036 58.6843 164.358 58.8479 166.679 59.3286C167.76 59.5468 169.332 59.8434 169.209 55.4797C169.103 51.9001 167.525 52.3468 166.441 52.3808C163.99 52.4763 161.474 52.766 158.815 53.5229C157.488 53.9081 156.101 54.4569 154.747 55.2683C154.049 55.7149 153.507 56.1138 152.951 56.5604C152.402 57.007 151.87 57.4843 151.372 57.982C150.847 58.507 150.35 59.0627 149.89 59.6491C149.426 60.2354 149.017 60.8183 148.591 61.5616C147.786 62.9831 147.309 64.4423 146.985 65.8195C146.348 68.5945 146.191 71.1786 146.085 73.7252C146.051 74.5638 145.161 75.7775 148.373 75.8968C151.836 76.0263 150.902 74.7718 150.974 74.0218C151.202 71.673 151.376 69.3445 151.836 67.2071L151.826 67.2275Z" fill="black"/>
<path d="M222.926 73.1697C222.831 70.7186 222.541 68.2027 221.784 65.5436C221.399 64.2175 220.85 62.8197 220.039 61.4765C219.592 60.7776 219.193 60.2356 218.747 59.6799C218.3 59.131 217.823 58.5992 217.325 58.1015C216.8 57.5697 216.244 57.0787 215.658 56.6186C215.072 56.1549 214.489 55.7458 213.745 55.3197C212.324 54.5151 210.865 54.0378 209.487 53.714C206.712 53.0765 204.128 52.9197 201.582 52.8141C200.743 52.78 199.529 51.8902 199.41 55.1016C199.281 58.5653 200.535 57.6311 201.285 57.7027C203.624 57.9312 205.962 58.105 208.1 58.5652C209.164 58.8005 210.176 59.0971 211.042 59.5505C211.864 59.9596 212.77 60.6584 213.51 61.3743C214.253 62.097 214.932 62.9527 215.423 63.8356C215.886 64.6572 216.166 65.6322 216.329 66.672C216.643 68.7755 216.479 71.097 215.999 73.4186C215.781 74.4993 215.484 76.0709 219.848 75.9481C223.427 75.8425 222.981 74.264 222.947 73.1799L222.926 73.1697Z" fill="black"/>
<path d="M216.755 114.826C216.52 115.89 216.223 116.902 215.77 117.768C215.361 118.59 214.662 119.497 213.946 120.236C213.223 120.979 212.368 121.658 211.485 122.149C210.663 122.612 209.688 122.892 208.648 123.056C206.545 123.369 204.223 123.206 201.902 122.725C200.821 122.507 199.249 122.21 199.372 126.574C199.478 130.153 201.056 129.707 202.14 129.673C204.592 129.577 207.108 129.288 209.767 128.531C211.093 128.145 212.48 127.597 213.834 126.785C214.533 126.339 215.075 125.94 215.63 125.493C216.179 125.047 216.711 124.569 217.209 124.072C217.734 123.547 218.231 122.991 218.692 122.404C219.155 121.818 219.564 121.235 219.991 120.492C220.795 119.07 221.272 117.611 221.596 116.234C222.234 113.459 222.39 110.875 222.496 108.328C222.53 107.49 223.42 106.276 220.209 106.157C216.745 106.027 217.679 107.282 217.607 108.032C217.379 110.381 217.205 112.709 216.745 114.847L216.755 114.826Z" fill="black"/>
<path d="M72 128.954C72 127.485 72.5957 126.155 73.5588 125.192C74.5214 124.23 75.851 123.635 77.3195 123.635H118.546C121.484 123.635 123.865 126.016 123.865 128.954V170.181C123.865 171.649 123.27 172.979 122.308 173.941C121.345 174.904 120.015 175.5 118.546 175.5H77.3195C74.3816 175.5 72 173.119 72 170.181V128.954Z" fill="black" stroke="#202020" stroke-width="0.443294"/>
<path d="M127 125.82C127 122.882 124.618 120.5 121.68 120.5L118.546 123.635C121.484 123.635 123.865 126.016 123.865 128.954L127 125.82Z" fill="#E5FEA1" stroke="#202020" stroke-width="0.443294" stroke-linejoin="round"/>
<path d="M121.68 120.5H80.4541L77.3195 123.635H118.546L121.68 120.5Z" fill="#E5FEA1" stroke="#202020" stroke-width="0.443294" stroke-linejoin="round"/>
<path d="M127 167.046V125.819L123.865 128.954V170.18L127 167.046Z" fill="#E5FEA1" stroke="#202020" stroke-width="0.443294" stroke-linejoin="round"/>
<path d="M76.6933 122.057C77.6559 121.095 78.9855 120.5 80.454 120.5L77.3195 123.635C75.8509 123.635 74.5214 124.23 73.5588 125.192L76.6933 122.057Z" fill="#E5FEA1" stroke="#202020" stroke-width="0.443294" stroke-linejoin="round"/>
<path d="M125.443 170.807C126.405 169.844 127 168.514 127 167.046L123.865 170.18C123.865 171.649 123.27 172.979 122.308 173.941L125.443 170.807Z" fill="#E5FEA1" stroke="#202020" stroke-width="0.443294" stroke-linejoin="round"/>
<path d="M75.1346 125.819C75.1346 124.351 75.7296 123.021 76.6918 122.059L73.5588 125.192C72.5957 126.154 72 127.485 72 128.954L75.1346 125.819Z" fill="#E5FEA1"/>
<path d="M121.68 172.365C123.149 172.365 124.479 171.77 125.441 170.808L122.308 173.941C121.345 174.904 120.015 175.5 118.546 175.5L121.68 172.365Z" fill="#E5FEA1"/>
<path d="M75.1346 125.819V167.046L72 170.18V128.954L75.1346 125.819Z" fill="#E5FEA1"/>
<path d="M80.4541 172.365H121.68L118.546 175.5H77.3195L80.4541 172.365Z" fill="#E5FEA1"/>
<path d="M75.1346 167.046C75.1346 169.984 77.5162 172.365 80.4541 172.365L77.3195 175.5C74.3816 175.5 72 173.118 72 170.18L75.1346 167.046Z" fill="#E5FEA1"/>
<rect x="75.1346" y="120.5" width="51.8654" height="51.8654" rx="5.31953" fill="#F5FFDB" stroke="#202020" stroke-width="0.443294"/>
<mask id="mask0_8729_69" style="mask-type:alpha" maskUnits="userSpaceOnUse" x="83" y="130" width="35" height="35">
<rect x="83" y="130" width="34.793" height="34.793" fill="#D9D9D9"/>
</mask>
<g mask="url(#mask0_8729_69)">
<path d="M96.0474 142.323C95.7388 142.323 95.4805 142.219 95.2725 142.01C95.0642 141.802 94.9601 141.544 94.9601 141.235C94.9601 140.927 95.0642 140.669 95.2725 140.461C95.4805 140.252 95.7388 140.148 96.0474 140.148H104.746C105.054 140.148 105.312 140.252 105.52 140.461C105.729 140.669 105.833 140.927 105.833 141.235C105.833 141.544 105.729 141.802 105.52 142.01C105.312 142.219 105.054 142.323 104.746 142.323H96.0474ZM93.5941 162.619C92.8618 162.619 92.2419 162.365 91.7345 161.858C91.2271 161.35 90.9734 160.73 90.9734 159.998V134.796C90.9734 134.063 91.2271 133.443 91.7345 132.936C92.2419 132.429 92.8618 132.175 93.5941 132.175H107.199C107.931 132.175 108.551 132.429 109.058 132.936C109.566 133.443 109.82 134.063 109.82 134.796V159.998C109.82 160.73 109.566 161.35 109.058 161.858C108.551 162.365 107.931 162.619 107.199 162.619H93.5941ZM93.1479 158.632V159.998C93.1479 160.11 93.1945 160.212 93.2875 160.305C93.3803 160.398 93.4825 160.444 93.5941 160.444H107.199C107.31 160.444 107.413 160.398 107.505 160.305C107.599 160.212 107.645 160.11 107.645 159.998V158.632H93.1479ZM93.1479 156.457H107.645V138.336H93.1479V156.457ZM93.1479 136.161H107.645V134.796C107.645 134.684 107.599 134.582 107.505 134.489C107.413 134.396 107.31 134.349 107.199 134.349H93.5941C93.4825 134.349 93.3803 134.396 93.2875 134.489C93.1945 134.582 93.1479 134.684 93.1479 134.796V136.161Z" fill="#1C1B1F"/>
</g>
<path d="M56 5.22715C56 4.49247 56.2979 3.82737 56.7794 3.34602C57.2607 2.86492 57.9255 2.56738 58.6598 2.56738H79.2729C80.7419 2.56738 81.9327 3.7582 81.9327 5.22715V25.8403C81.9327 26.5746 81.6352 27.2394 81.1541 27.7207C80.6727 28.2022 80.0076 28.5001 79.2729 28.5001H58.6598C57.1908 28.5001 56 27.3093 56 25.8403V5.22715Z" fill="#202020" stroke="#202020" stroke-width="0.221647"/>
<path d="M83.5 3.65977C83.5 2.19082 82.3092 1 80.8402 1L79.2729 2.56728C80.7419 2.56728 81.9327 3.7581 81.9327 5.22705L83.5 3.65977Z" fill="#F9D2D9" stroke="#202020" stroke-width="0.221647" stroke-linejoin="round"/>
<path d="M80.8403 1H60.2271L58.6598 2.56728H79.273L80.8403 1Z" fill="#F9D2D9" stroke="#202020" stroke-width="0.221647" stroke-linejoin="round"/>
<path d="M83.5 24.2729V3.65967L81.9327 5.22695V25.8401L83.5 24.2729Z" fill="#F9D2D9" stroke="#202020" stroke-width="0.221647" stroke-linejoin="round"/>
<path d="M58.3467 1.77863C58.828 1.29754 59.4928 1 60.227 1L58.6598 2.56728C57.9255 2.56728 57.2607 2.86482 56.7794 3.34591L58.3467 1.77863Z" fill="#F9D2D9" stroke="#202020" stroke-width="0.221647" stroke-linejoin="round"/>
<path d="M82.7213 26.1533C83.2024 25.672 83.5 25.0072 83.5 24.2729L81.9327 25.8402C81.9327 26.5745 81.6351 27.2393 81.1541 27.7206L82.7213 26.1533Z" fill="#F9D2D9" stroke="#202020" stroke-width="0.221647" stroke-linejoin="round"/>
<path d="M57.5673 3.65994C57.5673 2.92567 57.8648 2.26089 58.3459 1.7796L56.7794 3.34609C56.2979 3.82744 56 4.49255 56 5.22722L57.5673 3.65994Z" fill="#F9D2D9"/>
<path d="M80.8402 26.9327C81.5745 26.9327 82.2393 26.6352 82.7206 26.1541L81.1541 27.7206C80.6727 28.2022 80.0076 28.5 79.2729 28.5L80.8402 26.9327Z" fill="#F9D2D9"/>
<path d="M57.5673 3.65967V24.2729L56 25.8401V5.22695L57.5673 3.65967Z" fill="#F9D2D9"/>
<path d="M60.2271 26.9326H80.8403L79.273 28.4999H58.6598L60.2271 26.9326Z" fill="#F9D2D9"/>
<path d="M57.5673 24.2729C57.5673 25.7419 58.7581 26.9327 60.227 26.9327L58.6598 28.5C57.1908 28.5 56 27.3092 56 25.8402L57.5673 24.2729Z" fill="#F9D2D9"/>
<rect x="57.5673" y="1" width="25.9327" height="25.9327" rx="2.65977" fill="#FDEFF2" stroke="#202020" stroke-width="0.221647"/>
<path d="M79.9392 10.4459C79.8792 10.3659 79.7793 10.306 79.6793 10.286L78.4998 10.0661L78.5798 9.66623C78.6197 9.44632 78.4798 9.2464 78.2599 9.20641L63.7057 6.5075C63.6058 6.48751 63.4858 6.5075 63.4058 6.56747C63.3259 6.62745 63.2659 6.72741 63.2459 6.82737L62.946 8.40674L61.7665 8.18682C61.6665 8.16683 61.5466 8.18682 61.4666 8.2468C61.3867 8.30678 61.3267 8.40674 61.3067 8.5067L61.0068 10.0861C60.9668 10.306 61.1068 10.5059 61.3267 10.5459L62.5062 10.7658L62.2063 12.3452C62.1663 12.5651 62.3063 12.765 62.5262 12.805L69.9032 14.1644V20.7418H63.3059C62.966 20.7418 62.7061 21.0017 62.7061 21.3415C62.7061 21.6814 62.966 21.9413 63.3059 21.9413H70.503C70.8429 21.9413 71.1028 21.6814 71.1028 21.3415V14.3843L77.0804 15.4839C77.1004 15.4839 77.1203 15.4839 77.1603 15.4839C77.2403 15.4839 77.3203 15.4639 77.3802 15.4039C77.4602 15.344 77.5202 15.244 77.5402 15.144L77.6201 14.7442L78.7997 14.9641C78.8197 14.9641 78.8397 14.9641 78.8796 14.9641C78.9596 14.9641 79.0396 14.9441 79.0996 14.8841C79.1795 14.8242 79.2395 14.7242 79.2595 14.6242L79.9792 10.6858C80.0192 10.6458 79.9992 10.5459 79.9392 10.4459ZM61.8665 9.82617L62.0064 9.04648L62.7861 9.18642L62.6462 9.96611L61.8665 9.82617ZM63.086 12.0853L63.9656 7.36715L77.7201 9.92613L77.2803 12.2852L76.9004 14.2444L76.8205 14.6442L63.086 12.0853ZM78.5598 14.1444L77.7801 14.0045L78.08 12.4251L78.3798 10.8458L79.1595 10.9857L78.5598 14.1444Z" fill="#202020"/>
<path d="M75.461 12.1456C75.3011 12.1256 75.1411 12.1456 75.0212 12.2456C74.8812 12.3456 74.8013 12.4655 74.7813 12.6254C74.7613 12.7854 74.7813 12.9453 74.8812 13.0653C74.9812 13.2052 75.1011 13.2852 75.2611 13.3252C75.3011 13.3252 75.341 13.3452 75.381 13.3452C75.501 13.3452 75.6209 13.3052 75.7209 13.2452C75.8608 13.1452 75.9408 13.0253 75.9608 12.8654C75.9808 12.7054 75.9608 12.5455 75.8608 12.4255C75.7609 12.3056 75.6209 12.1656 75.461 12.1456ZM75.321 12.9253C75.2211 12.9053 75.1411 12.8054 75.1611 12.6854C75.1611 12.6254 75.2011 12.5855 75.2411 12.5655C75.2811 12.5455 75.341 12.5255 75.381 12.5255C75.441 12.5255 75.481 12.5655 75.501 12.6055C75.521 12.6454 75.541 12.7054 75.541 12.7454C75.541 12.8853 75.421 12.9453 75.321 12.9253Z" fill="#202020"/>
<rect opacity="0.6" x="61.0909" y="5.76807" width="24.7775" height="2.5" rx="1.25" transform="rotate(39.5237 61.0909 5.76807)" fill="#DF1C41"/>
<rect opacity="0.6" x="79.5909" y="6.76807" width="24.7775" height="2.5" rx="1.25" transform="rotate(135 79.5909 6.76807)" fill="#DF1C41"/>
<path d="M265 6.07258C265 5.19097 265.357 4.39284 265.935 3.81522C266.513 3.23791 267.311 2.88086 268.192 2.88086H292.928C294.69 2.88086 296.119 4.30984 296.119 6.07258V30.8084C296.119 31.6895 295.762 32.4873 295.185 33.0648C294.607 33.6427 293.809 34.0001 292.928 34.0001H268.192C266.429 34.0001 265 32.5711 265 30.8084V6.07258Z" fill="#202020" stroke="#202020" stroke-width="0.265977"/>
<path d="M298 4.19172C298 2.42898 296.571 1 294.808 1L292.928 2.88074C294.69 2.88074 296.119 4.30972 296.119 6.07246L298 4.19172Z" fill="#F9D2D9" stroke="#202020" stroke-width="0.265977" stroke-linejoin="round"/>
<path d="M294.808 1H270.073L268.192 2.88074H292.928L294.808 1Z" fill="#F9D2D9" stroke="#202020" stroke-width="0.265977" stroke-linejoin="round"/>
<path d="M298 28.9272V4.19141L296.119 6.07214V30.808L298 28.9272Z" fill="#F9D2D9" stroke="#202020" stroke-width="0.265977" stroke-linejoin="round"/>
<path d="M267.816 1.93436C268.394 1.35705 269.191 1 270.072 1L268.192 2.88074C267.311 2.88074 266.513 3.23779 265.935 3.8151L267.816 1.93436Z" fill="#F9D2D9" stroke="#202020" stroke-width="0.265977" stroke-linejoin="round"/>
<path d="M297.066 31.1841C297.643 30.6066 298 29.8089 298 28.9277L296.119 30.8085C296.119 31.6896 295.762 32.4873 295.185 33.0649L297.066 31.1841Z" fill="#F9D2D9" stroke="#202020" stroke-width="0.265977" stroke-linejoin="round"/>
<path d="M266.881 4.19144C266.881 3.31031 267.238 2.51258 267.815 1.93503L265.935 3.81482C265.357 4.39245 265 5.19057 265 6.07218L266.881 4.19144Z" fill="#F9D2D9"/>
<path d="M294.808 32.1194C295.689 32.1194 296.487 31.7623 297.065 31.185L295.185 33.0648C294.607 33.6427 293.809 34.0001 292.928 34.0001L294.808 32.1194Z" fill="#F9D2D9"/>
<path d="M266.881 4.19141V28.9272L265 30.808V6.07214L266.881 4.19141Z" fill="#F9D2D9"/>
<path d="M270.073 32.1191H294.808L292.928 33.9999H268.192L270.073 32.1191Z" fill="#F9D2D9"/>
<path d="M266.881 28.9277C266.881 30.6905 268.31 32.1195 270.072 32.1195L268.192 34.0002C266.429 34.0002 265 32.5712 265 30.8085L266.881 28.9277Z" fill="#F9D2D9"/>
<rect x="266.881" y="1" width="31.1193" height="31.1193" rx="3.19172" fill="#FDEFF2" stroke="#202020" stroke-width="0.265977"/>
<path d="M282 27C276.477 27 272 22.5228 272 17C272 11.4772 276.477 7 282 7C287.523 7 292 11.4772 292 17C292 22.5228 287.523 27 282 27ZM290.804 17.5882C290.817 17.3938 290.824 17.1977 290.824 17C290.824 12.1269 286.873 8.17647 282 8.17647C279.683 8.17647 277.575 9.06921 276.001 10.5294H277.882C278.207 10.5294 278.471 10.7928 278.471 11.1176C278.471 11.4425 278.207 11.7059 277.882 11.7059H274.941C273.833 13.1806 273.176 15.0136 273.176 17C273.176 18.0313 273.353 19.0212 273.679 19.9412H276.706C277.031 19.9412 277.294 20.2045 277.294 20.5294C277.294 20.8543 277.031 21.1176 276.706 21.1176L274.194 21.1177C275.674 23.9164 278.614 25.8235 282 25.8235C286.269 25.8235 289.829 22.7922 290.647 18.7647H288.471C288.146 18.7647 287.882 18.5013 287.882 18.1765C287.882 17.8516 288.146 17.5882 288.471 17.5882H290.804ZM277.294 17.2941C276.969 17.2941 276.706 17.0308 276.706 16.7059C276.706 16.381 276.969 16.1176 277.294 16.1176H280.529C280.854 16.1176 281.118 16.381 281.118 16.7059C281.118 17.0308 280.854 17.2941 280.529 17.2941H277.294ZM282 23.1765C281.675 23.1765 281.412 22.9131 281.412 22.5882C281.412 22.2634 281.675 22 282 22H285.529C285.854 22 286.118 22.2634 286.118 22.5882C286.118 22.9131 285.854 23.1765 285.529 23.1765H282ZM285.235 16.7059C283.611 16.7059 282.294 15.3891 282.294 13.7647C282.294 12.1403 283.611 10.8235 285.235 10.8235C286.86 10.8235 288.176 12.1403 288.176 13.7647C288.176 15.3891 286.86 16.7059 285.235 16.7059ZM285.235 15.5294C286.21 15.5294 287 14.7393 287 13.7647C287 12.7901 286.21 12 285.235 12C284.261 12 283.471 12.7901 283.471 13.7647C283.471 14.7393 284.261 15.5294 285.235 15.5294ZM285.235 14.3529C284.91 14.3529 284.647 14.0896 284.647 13.7647C284.647 13.4398 284.91 13.1765 285.235 13.1765C285.56 13.1765 285.824 13.4398 285.824 13.7647C285.824 14.0896 285.56 14.3529 285.235 14.3529Z" fill="#202020"/>
<rect opacity="0.6" x="271.109" y="6.72168" width="29.733" height="3" rx="1.5" transform="rotate(39.5237 271.109 6.72168)" fill="#DF1C41"/>
<rect opacity="0.6" x="293.309" y="7.92139" width="29.733" height="3" rx="1.5" transform="rotate(135 293.309 7.92139)" fill="#DF1C41"/>
<path d="M282 87.918C282 86.8895 282.417 85.9583 283.091 85.2844C283.765 84.6109 284.696 84.1943 285.724 84.1943H314.582C316.639 84.1943 318.306 85.8615 318.306 87.918V116.776C318.306 117.804 317.889 118.735 317.216 119.409C316.542 120.083 315.611 120.5 314.582 120.5H285.724C283.667 120.5 282 118.833 282 116.776V87.918Z" fill="#202020" stroke="#202020" stroke-width="0.310306"/>
<path d="M320.5 85.7237C320.5 83.6671 318.833 82 316.776 82L314.582 84.1942C316.639 84.1942 318.306 85.8613 318.306 87.9179L320.5 85.7237Z" fill="#F9D2D9" stroke="#202020" stroke-width="0.310306" stroke-linejoin="round"/>
<path d="M316.776 82H287.918L285.724 84.1942H314.582L316.776 82Z" fill="#F9D2D9" stroke="#202020" stroke-width="0.310306" stroke-linejoin="round"/>
<path d="M320.5 114.582V85.7236L318.306 87.9178V116.776L320.5 114.582Z" fill="#F9D2D9" stroke="#202020" stroke-width="0.310306" stroke-linejoin="round"/>
<path d="M285.285 83.0901C285.959 82.4166 286.89 82 287.918 82L285.724 84.1942C284.696 84.1942 283.765 84.6108 283.091 85.2843L285.285 83.0901Z" fill="#F9D2D9" stroke="#202020" stroke-width="0.310306" stroke-linejoin="round"/>
<path d="M319.41 117.215C320.083 116.541 320.5 115.61 320.5 114.582L318.306 116.776C318.306 117.804 317.889 118.735 317.216 119.409L319.41 117.215Z" fill="#F9D2D9" stroke="#202020" stroke-width="0.310306" stroke-linejoin="round"/>
<path d="M284.194 85.7234C284.194 84.6954 284.611 83.7648 285.284 83.091L283.091 85.284C282.417 85.9579 282 86.8891 282 87.9176L284.194 85.7234Z" fill="#F9D2D9"/>
<path d="M316.776 118.306C317.804 118.306 318.735 117.889 319.409 117.216L317.216 119.409C316.542 120.083 315.611 120.5 314.582 120.5L316.776 118.306Z" fill="#F9D2D9"/>
<path d="M284.194 85.7236V114.582L282 116.776V87.9178L284.194 85.7236Z" fill="#F9D2D9"/>
<path d="M287.918 118.306H316.776L314.582 120.5H285.724L287.918 118.306Z" fill="#F9D2D9"/>
<path d="M284.194 114.582C284.194 116.639 285.861 118.306 287.918 118.306L285.724 120.5C283.667 120.5 282 118.833 282 116.776L284.194 114.582Z" fill="#F9D2D9"/>
<rect x="284" y="82" width="36.3058" height="36.3058" rx="3.72367" fill="#FDEFF2" stroke="#202020" stroke-width="0.310306"/>
<mask id="mask1_8729_69" style="mask-type:alpha" maskUnits="userSpaceOnUse" x="290" y="88" width="24" height="24">
<rect x="290" y="88" width="24" height="24" fill="#D9D9D9"/>
</mask>
<g mask="url(#mask1_8729_69)">
<path d="M296.5 107.5C295.118 107.5 293.939 107.02 292.964 106.06C291.988 105.099 291.5 103.928 291.5 102.546C291.5 101.323 291.892 100.235 292.675 99.2828C293.458 98.3301 294.458 97.7666 295.673 97.5923C295.993 96.0974 296.745 94.875 297.928 93.925C299.111 92.975 300.468 92.5 302 92.5C303.809 92.5 305.345 93.1311 306.607 94.3932C307.869 95.6554 308.5 97.191 308.5 99V99.5H308.808C309.862 99.582 310.74 100.006 311.444 100.771C312.148 101.537 312.5 102.446 312.5 103.5C312.5 104.615 312.112 105.561 311.337 106.337C310.561 107.112 309.615 107.5 308.5 107.5H296.5ZM296.5 106H308.5C309.2 106 309.792 105.758 310.275 105.275C310.758 104.792 311 104.2 311 103.5C311 102.8 310.758 102.208 310.275 101.725C309.792 101.242 309.2 101 308.5 101H307V99C307 97.6167 306.513 96.4375 305.538 95.4625C304.562 94.4875 303.383 94 302 94C300.617 94 299.438 94.4875 298.463 95.4625C297.488 96.4375 297 97.6167 297 99H296.5C295.533 99 294.708 99.3417 294.025 100.025C293.342 100.708 293 101.533 293 102.5C293 103.467 293.342 104.292 294.025 104.975C294.708 105.658 295.533 106 296.5 106Z" fill="#202020"/>
</g>
<rect opacity="0.6" x="289.127" y="88.6748" width="34.6886" height="3.5" rx="1.75" transform="rotate(39.5237 289.127 88.6748)" fill="#DF1C41"/>
<rect opacity="0.6" x="315.027" y="90.0752" width="34.6886" height="3.5" rx="1.75" transform="rotate(135 315.027 90.0752)" fill="#DF1C41"/>
<path d="M0.5 60.7634C0.5 59.588 0.976588 58.5238 1.74708 57.7536C2.51714 56.9839 3.58079 56.5078 4.75563 56.5078H37.7367C40.087 56.5078 41.9923 58.4131 41.9923 60.7634V93.7445C41.9923 94.9194 41.5163 95.983 40.7465 96.7531C39.9764 97.5236 38.9122 98.0002 37.7367 98.0002H4.75563C2.40531 98.0002 0.5 96.0949 0.5 93.7445V60.7634Z" fill="#202020" stroke="#202020" stroke-width="0.354635"/>
<path d="M44.5 58.2556C44.5 55.9053 42.5947 54 40.2444 54L37.7367 56.5077C40.087 56.5077 41.9924 58.413 41.9924 60.7633L44.5 58.2556Z" fill="#F9D2D9" stroke="#202020" stroke-width="0.354635" stroke-linejoin="round"/>
<path d="M40.2444 54H7.26333L4.75568 56.5077H37.7368L40.2444 54Z" fill="#F9D2D9" stroke="#202020" stroke-width="0.354635" stroke-linejoin="round"/>
<path d="M44.5 91.2365V58.2554L41.9924 60.763V93.7441L44.5 91.2365Z" fill="#F9D2D9" stroke="#202020" stroke-width="0.354635" stroke-linejoin="round"/>
<path d="M4.25472 55.2458C5.02479 54.4761 6.08843 54 7.26327 54L4.75562 56.5077C3.58078 56.5077 2.51714 56.9837 1.74707 57.7535L4.25472 55.2458Z" fill="#F9D2D9" stroke="#202020" stroke-width="0.354635" stroke-linejoin="round"/>
<path d="M43.2541 94.2454C44.0239 93.4753 44.5 92.4117 44.5 91.2368L41.9923 93.7445C41.9923 94.9193 41.5162 95.9829 40.7465 96.753L43.2541 94.2454Z" fill="#F9D2D9" stroke="#202020" stroke-width="0.354635" stroke-linejoin="round"/>
<path d="M3.00765 58.2554C3.00765 57.0806 3.48372 56.0169 4.25346 55.2469L1.74708 57.7533C0.976588 58.5234 0.5 59.5876 0.5 60.7631L3.00765 58.2554Z" fill="#F9D2D9"/>
<path d="M40.2444 95.4922C41.4192 95.4922 42.4829 95.0161 43.2529 94.2464L40.7465 96.7528C39.9764 97.5233 38.9122 97.9998 37.7367 97.9998L40.2444 95.4922Z" fill="#F9D2D9"/>
<path d="M3.00765 58.2554V91.2365L0.5 93.7441V60.763L3.00765 58.2554Z" fill="#F9D2D9"/>
<path d="M7.26333 95.4922H40.2444L37.7368 97.9998H4.75568L7.26333 95.4922Z" fill="#F9D2D9"/>
<path d="M3.00765 91.2368C3.00765 93.5871 4.91296 95.4924 7.26328 95.4924L4.75563 98.0001C2.40531 98.0001 0.5 96.0948 0.5 93.7445L3.00765 91.2368Z" fill="#F9D2D9"/>
<rect x="3.00006" y="54" width="41.4923" height="41.4923" rx="4.25563" fill="#FDEFF2" stroke="#202020" stroke-width="0.354635"/>
<mask id="mask2_8729_69" style="mask-type:alpha" maskUnits="userSpaceOnUse" x="12" y="63" width="24" height="24">
<rect x="12" y="63" width="24" height="24" fill="#D9D9D9"/>
</mask>
<g mask="url(#mask2_8729_69)">
<path d="M24.0022 78.577C25.1354 78.577 26.0978 78.1804 26.8895 77.3872C27.6812 76.5941 28.077 75.6309 28.077 74.4978C28.077 73.3646 27.6804 72.4022 26.8872 71.6105C26.0941 70.8188 25.1309 70.423 23.9977 70.423C22.8646 70.423 21.9022 70.8196 21.1105 71.6128C20.3188 72.4059 19.923 73.3691 19.923 74.5023C19.923 75.6354 20.3196 76.5978 21.1127 77.3895C21.9059 78.1812 22.8691 78.577 24.0022 78.577ZM24 77.2C23.25 77.2 22.6125 76.9375 22.0875 76.4125C21.5625 75.8875 21.3 75.25 21.3 74.5C21.3 73.75 21.5625 73.1125 22.0875 72.5875C22.6125 72.0625 23.25 71.8 24 71.8C24.75 71.8 25.3875 72.0625 25.9125 72.5875C26.4375 73.1125 26.7 73.75 26.7 74.5C26.7 75.25 26.4375 75.8875 25.9125 76.4125C25.3875 76.9375 24.75 77.2 24 77.2ZM24 81.5C21.8948 81.5 19.9695 80.9384 18.224 79.8152C16.4785 78.6922 15.0852 77.2148 14.0442 75.3828C13.9609 75.2391 13.9 75.0943 13.8615 74.9485C13.8232 74.8027 13.804 74.653 13.804 74.4995C13.804 74.346 13.8232 74.1965 13.8615 74.051C13.9 73.9055 13.9609 73.7609 14.0442 73.6172C15.0852 71.7852 16.4785 70.3078 18.224 69.1848C19.9695 68.0616 21.8948 67.5 24 67.5C26.1052 67.5 28.0305 68.0616 29.776 69.1848C31.5215 70.3078 32.9147 71.7852 33.9557 73.6172C34.0391 73.7609 34.1 73.9057 34.1385 74.0515C34.1768 74.1973 34.196 74.347 34.196 74.5005C34.196 74.654 34.1768 74.8035 34.1385 74.949C34.1 75.0945 34.0391 75.2391 33.9557 75.3828C32.9147 77.2148 31.5215 78.6922 29.776 79.8152C28.0305 80.9384 26.1052 81.5 24 81.5ZM24 80C25.8833 80 27.6125 79.5042 29.1875 78.5125C30.7625 77.5208 31.9667 76.1833 32.8 74.5C31.9667 72.8167 30.7625 71.4792 29.1875 70.4875C27.6125 69.4958 25.8833 69 24 69C22.1167 69 20.3875 69.4958 18.8125 70.4875C17.2375 71.4792 16.0333 72.8167 15.2 74.5C16.0333 76.1833 17.2375 77.5208 18.8125 78.5125C20.3875 79.5042 22.1167 80 24 80Z" fill="#202020"/>
</g>
<rect opacity="0.6" x="8.64542" y="61.6284" width="39.6441" height="4" rx="2" transform="rotate(39.5237 8.64542 61.6284)" fill="#DF1C41"/>
<rect opacity="0.6" x="38.2454" y="63.2285" width="39.6441" height="4" rx="2" transform="rotate(135 38.2454 63.2285)" fill="#DF1C41"/>
</svg>
