<svg width="20" height="20" viewBox="0 0 20 20" fill="none" xmlns="http://www.w3.org/2000/svg">
<g clip-path="url(#clip0_8672_176)">
<path d="M15 5.83333H17.5C17.721 5.83333 17.9329 5.92113 18.0892 6.07741C18.2455 6.23369 18.3333 6.44565 18.3333 6.66667V16.6667C18.3333 16.8877 18.2455 17.0996 18.0892 17.2559C17.9329 17.4122 17.721 17.5 17.5 17.5H2.49996C2.27895 17.5 2.06698 17.4122 1.9107 17.2559C1.75442 17.0996 1.66663 16.8877 1.66663 16.6667V3.33333C1.66663 3.11232 1.75442 2.90036 1.9107 2.74408C2.06698 2.5878 2.27895 2.5 2.49996 2.5H15V5.83333ZM3.33329 7.5V15.8333H16.6666V7.5H3.33329ZM3.33329 4.16667V5.83333H13.3333V4.16667H3.33329ZM12.5 10.8333H15V12.5H12.5V10.8333Z" fill="#202020"/>
</g>
<defs>
<clipPath id="clip0_8672_176">
<rect width="20" height="20" fill="white"/>
</clipPath>
</defs>
</svg>
