<svg width="20" height="20" viewBox="0 0 20 20" fill="none" xmlns="http://www.w3.org/2000/svg">
<path d="M16.6666 18.3335H14.9999V16.6668C14.9999 16.0038 14.7365 15.3679 14.2677 14.8991C13.7988 14.4302 13.163 14.1668 12.4999 14.1668H7.49992C6.83688 14.1668 6.20099 14.4302 5.73215 14.8991C5.26331 15.3679 4.99992 16.0038 4.99992 16.6668V18.3335H3.33325V16.6668C3.33325 15.5618 3.77224 14.502 4.55364 13.7206C5.33504 12.9391 6.39485 12.5002 7.49992 12.5002H12.4999C13.605 12.5002 14.6648 12.9391 15.4462 13.7206C16.2276 14.502 16.6666 15.5618 16.6666 16.6668V18.3335ZM9.99992 10.8335C9.34331 10.8335 8.69313 10.7042 8.0865 10.4529C7.47987 10.2016 6.92868 9.83332 6.46438 9.36903C6.00009 8.90474 5.63179 8.35354 5.38052 7.74691C5.12925 7.14029 4.99992 6.49011 4.99992 5.8335C4.99992 5.17689 5.12925 4.52671 5.38052 3.92008C5.63179 3.31345 6.00009 2.76226 6.46438 2.29796C6.92868 1.83367 7.47987 1.46537 8.0865 1.2141C8.69313 0.962825 9.34331 0.833496 9.99992 0.833496C11.326 0.833496 12.5978 1.36028 13.5355 2.29796C14.4731 3.23564 14.9999 4.50741 14.9999 5.8335C14.9999 7.15958 14.4731 8.43135 13.5355 9.36903C12.5978 10.3067 11.326 10.8335 9.99992 10.8335ZM9.99992 9.16683C10.884 9.16683 11.7318 8.81564 12.3569 8.19052C12.9821 7.5654 13.3333 6.71755 13.3333 5.8335C13.3333 4.94944 12.9821 4.10159 12.3569 3.47647C11.7318 2.85135 10.884 2.50016 9.99992 2.50016C9.11586 2.50016 8.26802 2.85135 7.6429 3.47647C7.01777 4.10159 6.66659 4.94944 6.66659 5.8335C6.66659 6.71755 7.01777 7.5654 7.6429 8.19052C8.26802 8.81564 9.11586 9.16683 9.99992 9.16683Z" fill="#202020"/>
</svg>
